<?xml version="1.0" encoding="utf-8"?>
<!-- Generator: Adobe Illustrator 20.1.0, SVG Export Plug-In . SVG Version: 6.00 Build 0)  -->
<svg version="1.1" id="Layer_1" xmlns="http://www.w3.org/2000/svg" xmlns:xlink="http://www.w3.org/1999/xlink" x="0px" y="0px"
	 viewBox="0 0 971.5 480.1" style="enable-background:new 0 0 971.5 480.1;" xml:space="preserve">
<style type="text/css">
	.st0{fill:#E8E8E8;}
	.st1{fill:#DBDBDB;}
	.st2{enable-background:new    ;}
	.st3{fill:#21E09E;}
	.st4{fill:url(#_Path_3_1_);}
	.st5{fill:#8F9694;}
	.st6{fill:url(#_Path_4_1_);}
	.st7{fill:url(#_Path_5_1_);}
	.st8{fill:url(#_Path_6_1_);}
	.st9{fill:none;}
	.st10{fill:#323547;}
	.st11{fill:#195E49;}
	.st12{fill:#2C8C6E;}
	.st13{fill:#31997B;}
	.st14{fill:#474C4B;}
</style>
<title>404-content</title>
<path id="_Path_" class="st0" d="M971.5,255.3V65.6h-0.3l0.3-0.3v-1c-2.9,0.9-5.8,1.7-8.8,2.3l-0.4-2.2c-2.2,1.1-4.4,2.3-6.4,3.8
	c-3,2.2,0-2.2,0-2.2l-6.8,2.2l-3.8-0.3l-6.4,1.3c0,0-5.5,2.2-8.1,2.2s-2.6-1.2-2.6-1.2l-2.6,1.9c-2.6,1.9-3.4,1.6-3.4,1.6
	c-0.2-1-0.5-1.9-0.9-2.8s-2.6,1.9-3.8,3.1s-4.7,0-6,0s-2.6,1.9-6.8,1.9s-2.1,0.6-2.1,0.6H900c-2.6,0-3,2.2-4.3,3.4s-1.3-2.8-1.3-2.8
	s-5.1,2.5-11.1,5.3s-0.4-2.5-0.4-2.5c-2.8,1.3-5.6,2.5-8.5,3.4c-1.5,0.5-2.4,0.9-2.9,1.2c-0.6,0.4-1,0.5,0,0c0.7-0.4,1.1-1,1.2-1.8
	c0-2.2-2.1-0.9-2.1-0.9s-5.5,2.8-7.7,1.9s0,0-3-1.2s-3.8,2.5-4.7,4.4s-1.7-1.6-1.7-1.6l-3,3.4l-6-2.2l-4.3,4.7L830,94.6l-0.9-1.9
	c-0.9-1.9,0,0-3.4,0s-7.7,5-7.7,5c-1.8,0.5-3.7,0.7-5.6,0.6c-3.4,0-5.5,3.8-5.5,3.8c-0.7-1-1.2-2-1.7-3.1c-0.9-1.9-1.3,3.1-5.5,5
	s-2.1,0.6-4.3,0.6s-9.8,2.8-9.8,2.8s-0.8,1.2-3.8-0.6s0,0-2.1,1.6s-2.1,1.9-3,0.9c-0.5-0.6-1.1-1.1-1.7-1.6c0,0-4.3,5.3-6.8,9.4
	s-0.4-1.9-0.4-1.9s-1.7,0.9-6,3.1s-2.6-0.6-4.7-0.9s-3.4,1.2-6,2.5s-4.3-1.2-5.6-1.5s-7.3,4.1-7.3,4.1l-2.1,0.9l-4.3,1.3
	c-2.5,0.7-2.8,0.9-2.6,1h0.5c-0.2,0-0.3,0-0.5,0l-5.5,0.3l-3.8,0.9c0,0-3.4,3.4-6,2.2s-4.7,1.6-4.7,1.6l-2.1,1.9l-1.7-2.8l-4.3,4.1
	c-4.3,4.1-2.6,0.6-3.8-1.9c0,0-0.8,1.2-3.8,2.5s0,0-0.8,1.6s0,0-3.4-0.6s-2.6,0.3-2.6,0.3l-3.4,1.2l-1.3,1.9l-9,2.2
	c-6.4,1.6-2.1-0.3-5.6,0s0,0-4.7,1.9s-2.6,0.9-1.7-2.8s-1.7,0.9-7.7,2.8s-1.7,0.9-4.7,0.6s-0.9-2.5-0.9-2.5l-9,6.6l-3.4-2.2
	c0,0-7.7,2.5-10.7,3.8s0,0,0.4-3.7s-2.1,0.9-9.8,3.1c0,0-5.1,0.6-7.7,1.9c-1.3,0.7-2.8,1.1-4.3,1.3c0,0-1.7-3.7-3-3.1
	s-2.1,0.9-10.7,0s0-1.6,0-3.7s-13.7,5.6-13.7,5.6c-0.5-1.5-0.8-3.1-0.9-4.7c0-2.5-9.4,4.4-9.4,4.4s-4.3-2.8-3.9-4.3s0,0-8.1,1
	s-3.4-0.3-3.4-0.3c-0.8-1.3-2-2.3-3.4-2.8c-2.6-0.9-3,2.8-3,2.8l-0.9-1.2c-0.9-1.2,0,0-1.3-3.1s0,0-0.4-0.9s-2.6,2.2-6,2.5
	s0,0-0.4-1.9s-4.7,1.6-7.3,1.9s0,0-2.1-1.9s-1.7,0.3-3.8,0.9s-2.1-0.3-2.1-0.3c0-1.9-0.2-3.7-0.4-5.6c-0.4-3.1-3.4,2.8-3.4,2.8
	l-5.6,0.6l-4,0.4c-3.4,0.3,0,0-5.6,0.9s0,0,0.4-2.2s0,0-3,0.6s0,0-0.4,2.2s-2.6-4.7-2.6-4.7s-0.4-1.9-7.3,0.6h-3
	c-1.1-0.1-2.1-0.4-3-0.9c0,0-0.9-2.5-2.1-2.5s-1.7,0.9-5.1-0.3s0,0-0.4-1.6s0,0-5.5,3.1s-0.9-1.6-1.3-4s0,0-1.7,0
	c-0.9,0.1-1.8-0.4-2.1-1.2l-0.9-3.4c-0.9-3.4-1.7,1.9-6.8,2.2l-0.9-2.8c-1.8,1.5-4.1,2.3-6.4,2.2c-4.3,0,0,0-3-3.4s0,0-1.3,0.6
	s-3.4,0.6-6.8,1.3c-3.4,0.7,0-1.6-1.3-2.8s0,0-3,0.9s-1.7,0-2.6-0.9s0-2.5,0-3.4s-2.6,0.6-6.8,1.6s0,0,0.9-2.2s-4.3-1.9-4.3-1.9
	l-4.5,3.1l-3-4l-3.9-2.2l-7.3-1.5h-3.9c-3.9,0-3-0.3-3-0.3s-0.9-2.8-3.4-2.8s0,0-3.9,0.9s-1.7-1.2-3-4.7s0,0-5.6-0.6
	c-2.2-0.2-3.2-0.1-3.7,0.2c0,0.6-0.1,1.1-0.1,1.1s-0.6-0.7,0.1-1.1c0.1-0.8,0.1-1.6-0.1-2.3c-0.4-0.9-3.9,0.6-9,1.6s0,0-1.3-1.2
	s-0.9-2.2-2.1-2.5s-3,0.3-11.1-0.3s-1.3-1.9-1.3-1.9l-3.9,0.6c-3.9,0.6,0,0-3-0.6s-2.1-0.9-2.6-4s0,0-5.1,0.3s0,0,0.4-1.6
	s-2.5-1.3-2.5-1.3l-11.1,1.6l-2.1-2.8h-4.7c-4.7,0-1.7,0.3-5.1-1.5s0,0-0.9-2.5s-2.1,0-3.9,0c-1.3-0.1-2.6-0.3-3.9-0.6l-3.9,0.3
	l-0.4-1.2l0.4-2.5l-11.4,1.9l-5.6-0.3c-0.6-0.8-1-1.8-1.3-2.8c0-0.9-3,0.3-6.4,1s0-1.6,0-1.6l-1.7-3.8l-6,2.2l-3.4-0.3
	c0,0-1.7-0.9-4.3-2.2c-2.6-1.2,0,0-4.7,0.6s0,0-0.9-1.6s-3.4-1.9-3.4-1.9l-3.4,1.6c-3.4,1.6-4.3-0.3-4.3-0.3l-0.9-1.9
	c-0.9-1.9-1.3-1.6-3.4-1.9c-2.1-0.3-3,1.6-6.4,1.9s-1.3-1.2-1.3-1.2l-2.6-1.5c0,0-4.7,1.6-6,1.6s-1.7-0.3-4.3-2.5s-1.7,0-1.7,0
	c-1.7,0.6-3.4,1-5.1,1.3c-1.7,0-2.1-2.2-2.1-2.2l-3.4-0.6l-4.3,2.2c-4.2,2.2-2-1.5-2-1.5c-2.1,0.3-4.3,0.4-6.4,0.3
	c-4.7,0,0,0-1.7-1.6s-0.9-1.2-2.1-2.8c-1.3-1.5-1.7,1.6-3.8,3.4c-2.1,1.9-2.6,0.9-2.6,0.9c-0.9-1-1.5-2.1-1.7-3.4
	c-0.4-2.2-1.7,0.3-4.3,1.9s0,0-4.3,0.3s-2.1-0.6-2.1-0.6l0.4-1.9c-1.5,0-2.9,0.8-3.7,2.1c-1.1,2.1,0,0-6.1,0.1c0,0-1.7-1.9-3.4-1.2
	c-0.7,0.2-1.5,0.5-2.1,0.9l-3.4-0.3l-1.7-0.6c0,0-2.1,0-4.7,3.1c-1.2-1.3-2.2-2.8-3-4.4c-1.3-2.5-3,0.9-3,0.9l-2.1,1.5l-0.9-3.4
	l-6.4,3.1l-2.1-0.6l-3.8,2.8l-3-3.4l-4.7,2.5c-3.2,0.1-6.3,0.5-9.4,1c-6.4,1-2.1,0-2.1,0l-3.9-1.9L95,71.2c-4.3,1.6-1.3-1.9-1.3-1.9
	l-1.3,0.6c-1.3,0.6-1.7,3.1-1.7,3.1l-3.9-2.5L83,70.8c-1.3,1.1-2.7,1.9-4.3,2.5L71,74.9L68.2,77l-6-3.4c-2.4,0.6-4.8,1.7-6.9,3.1
	c-3,2.2-2.1-0.6-2.1-0.6l-3,0.3l-3,1.6l-3.4-1.2l-3.4-0.9l-2.1,4c-2.1,4-3.9,0.3-3.9,0.3l-2.1,0.6l-3.8,1.6l-3.9-2.8
	c0,0-3.4,0-3.8,1.3s-3.4,1.3-3.4,1.3l-3-1.2c-3-1.2-2.6,0-2.6,0l-0.9,1.9c-1.6,0.1-3.2,0.3-4.7,0.6L2.8,84l-2.1,0.6
	c-0.2,0.1-0.4,0.1-0.6,0.1v171.4C154,256.5,730.9,257.3,971.5,255.3z"/>
<path id="_Path_2" class="st1" d="M971.5,145.7c-0.3,2.4-0.5,3.9-0.5,4.2c0,2.1-15-36.5-15-36.5l-6.5,17.2l-0.7-16.6l-5.2,16.1
	l-2-18.8l-7.8,26.9c0,0-7.8-47.2-8.5-52.1s-15.6,38.7-15.6,38.7l-8.4-17.7l-9.9,48.9c0,0-9.8-68.6-11.8-72.9s-9.7,71.8-9.7,71.8
	s-3.3-27.9-4.6-32.2s-6.5,39.2-6.5,39.2s-8.5-25.8-9.1-29s-6.9,26.7-6.9,26.7s-6.4-30.2-7.1-39.3c-0.2-2-14,38.9-14,41
	s-8.4-52.6-8.4-52.6s-12,45.3-11.7,48.2c-0.8-2.4-10.5-30.4-12.3-35.9c-2-5.9-9.8,29-9.8,29l-4.6-42.4l-12.9,77
	c-10.5-34.2-13.9-32.8-16.3-58c-0.7-7-11.7,52.6-11.7,52.6l-8.5-27.9l-9.1,22l-9.1-19.3l-8.5,30.6c0,0-12.4-37-14.3-40.3
	s-7.8,24.2-7.8,24.2L665,127.1l-11.1,55.3l-9.1-43.5c0,0-7.2,43-7.2,46.2s-9.5-34.6-10.3-31.9c-3.7,12.5-10.1,51.6-10.1,51.6
	l-13.5-39.6c0,0-8.5,56.5-8.5,59.8s-16.3-67.7-16.9-72.5S566,203,566,206.2s-4.6-32.2-5.2-40.8s-9.1,38.1-9.1,41.4
	s-7.2-23.6-7.2-23.6l-13.7,41.4L519.1,166l-14,61l-13.7-97c0,0-12.1,73.3-11.4,77.6s-8.5-33.8-8.5-33.8l-0.6,22
	c0,0-14.3-51.5-14.3-54.2s-9.1,54.2-9.1,54.2l-12.4-52.1l-7.2,56.4c0,0-11.1-20.9-12.4-23.1s-2.6,16.1-2.6,16.1l-15-58l-11.1,64.4
	c0,0-15.6-40.3-16.3-44.6S360.1,185,360.1,185l-9.1-44.6l-22.1,49.4l-11.7-41.9l-5.9,40.8l-7.2-18.8l-3.9,24.2l-14.9-56.9
	c0,0-10.4,14.2-11.7,16.3s-11.1-43-11.1-43L252,141.7l-7.8-39.7c0,0-9.1,52.1-9.1,55.8s-15-43.5-15-43.5s-9.8,31.7-11.1,33.3
	s-8.5-56.9-8.5-56.9s-18.2,47.8-18.2,52.1s-13-34.9-13-34.9l-7.8,22l-3.2-15.6l-4.6,19.3c0,0-11.7-38.7-12.4-40.3
	s-8.3,34.4-8.3,36.5c0,2.1-4.7-43.4-4.7-43.4l-5.2,27.4l-4.6-66.6c0,0-13,49.9-13,53.2S103,75.9,103,75.9l-8.5,29.5l-5.9-38.7
	l-5.2,35.4l-9.8-18.3l-5.9,21.5l-5.2-52.6l-13,52.1l-7.8-29l-12.5,41.3l-7.8-36c0,0-5.9,32.8-5.9,34.4s-15-64.4-15-64.4l-0.7,1.7
	v290.9h971.6v-198H971.5z"/>
<g class="st2">
	<path class="st3" d="M368.6,212.8h-71.5v-11.3l54.9-110h15.1l-54.5,107.6v1.1h55.9v-46.9h13.5v46.3h24.7v13.2h-24.9v34.4h-13.3
		V212.8z"/>
	<path class="st3" d="M535.2,169.4c0,52.7-17.8,81.5-50.3,81.5c-32.5,0-50.3-28.8-50.3-81.5s17.8-81.5,50.3-81.5
		C517.4,87.9,535.2,116.7,535.2,169.4z M516.6,132.2c-5.3-20.7-15.9-31.4-31.6-31.4c-23.3,0-35.5,23.5-35.5,68.6
		c0,8.4,0.4,16.2,1.3,23.1L516.6,132.2z M453.4,207c5.3,20.4,15.9,31,31.5,31c23.3,0,35.5-23.5,35.5-68.6c0-8.6-0.4-16.4-1.3-23.4
		L453.4,207z"/>
	<path class="st3" d="M641.9,212.8h-71.5v-11.3l54.9-110h15.1L586,199.1v1.1h55.9v-46.9h13.5v46.3h24.7v13.2h-24.9v34.4h-13.3V212.8
		z"/>
</g>
<linearGradient id="_Path_3_1_" gradientUnits="userSpaceOnUse" x1="477.43" y1="847.96" x2="477.43" y2="-574.6301" gradientTransform="matrix(1 0 0 1 8.32 -166.67)">
	<stop  offset="0" style="stop-color:#FFFFFF;stop-opacity:0"/>
	<stop  offset="0.15" style="stop-color:#FFFFFF;stop-opacity:1.000000e-02"/>
	<stop  offset="0.28" style="stop-color:#FFFFFF;stop-opacity:5.000000e-02"/>
	<stop  offset="0.4" style="stop-color:#FFFFFF;stop-opacity:0.12"/>
	<stop  offset="0.52" style="stop-color:#FFFFFF;stop-opacity:0.22"/>
	<stop  offset="0.63" style="stop-color:#FFFFFF;stop-opacity:0.34"/>
	<stop  offset="0.74" style="stop-color:#FFFFFF;stop-opacity:0.5"/>
	<stop  offset="0.85" style="stop-color:#FFFFFF;stop-opacity:0.68"/>
	<stop  offset="0.95" style="stop-color:#FFFFFF;stop-opacity:0.88"/>
	<stop  offset="1" style="stop-color:#FFFFFF"/>
</linearGradient>
<path id="_Path_3" class="st4" d="M971.5,480.1V295.9l-158.6-38.1c0,0-20.8-21.8-41.7-20.2s-27.8-17.1-46.3-18.6s-13.9-26.4-44-24.9
	s-44,40.3-78.8,31.8s-28.4-38-62.9-24s-69.2-31.1-87.7-28C436.3,176.5,116.1,251.8,0,279.1v201H971.5z"/>
<path id="_Compound_Path_" class="st5" d="M971.5,476.5V310.7l-2.2,1c-0.9-0.1-1.3-0.5-0.5-1.5l2.7-0.2v-15.2c-1.9,0-3-0.2-2.4-0.9
	l2-2.2c0.1,0.1,0.2,0.2,0.3,0.3v-7c-4,1.7-7.3,2.7-6.3,1.1c1.4-2.3,4.4-6.6,6.3-9.5v-1.8c-2.4,1.2-6.1,2.9-6.3,1.5
	c-0.4-2,3.6-9.8,3.6-9.8h-6.5l9.2-10.8v-0.5c-1.7,0.3-7.1,1.3-7.4-0.1c-0.4-1.6,2.2-13.6,2.2-13.6l-6.5,3.2l2.2-8.8l-4,2l8-14.3
	l-12.3,6.5l-5.4-32.8l-5.1,33.5l-7.2-9.1c0,0,7.2,20.1,2.9,17.5s-15.9-10.1-15.9-10.1s15.2,16.9,9.8,14.6c-3.6-1.5-7.1-3.3-10.5-5.2
	c0,0,19.2,21.1,12.7,20.8c-6.5-0.3-19.9-1.6-19.9-1.6s12.3,12.3,8,11s-8,2-8,2s6.9,8.1,5.4,8.1h-9l6.9,9.8l-13.7-1.8
	c0,0,1.4,1.9,3.3,4.5c-5.7,0.6-16.8,2-13.1,0.2c4.5-2.2,10.8-19.3,7.9-17.4s-8.1,7.2-7.3,5.3c0.8-2,11-23.9,8.9-22.6
	s-12.4,14.8-11.8,10.4s6.9-15.4,4.7-13.8s-7.3,9-7.7,6.6c-0.3-1.9,3.9-12.5,3.4-16.1c2.6,0.2,6.5,0.2,6.5,0.2s-10.5-7.9-13.2-9.4
	s10.5-7.9,6.7-7.2s-12.6,2.4-11.6,1.1s6.5-16.2,4.7-15.4s-4.3,1.3-6.7,3.1s-1.8-15.8-3.4-14.7s-5.7,2-5.7,2s-3.5-20.6-5.1-23.2
	c0,0-1.5,25.5-3.3,23.7s-4.4-6.9-4.4-6.9s4.4,19.6,1.8,19.9s-10.2-1.3-10.2-1.3s8.8,13.5,6.7,12.5s-7.2-2.6-7.2-2.6s8.2,6.9,5.9,6.9
	s-10.3,0.5-10.3,0.5s11.7,9.5,8.2,8.4s-13.5-2.8-13.5-2.8s18.7,17.6,13.5,16.3c-5.2-1.3-9.3-2.8-9.3-2.8s11.1,9.2,7.9,8.7
	s-10.7-0.7-10.7-0.7s9.2,8.8,9.5,9.7c0,0.1-0.1,0.1-0.5-0.2c-3-2-22.5-7-19.1-3.2s19.9,14.1,15.2,13s-12-2.6-12-2.6
	s12,13.6,10.8,13.4s4.7,5.5,1.2,4.8s-17.8-6.4-15-3.7c2.8,2.6,13,10.8,10.8,10.8s-11.6,0.2-11.6,0.2s17,10.8,14,10.5
	c-3-0.2-6.9,7.9-10.5,7.5s-2.6,1.1,0.6,2.4s7.5,1.5,0.2,4.2c-1.7,0.6-3.3,1.3-4.9,2.1l-1-2.4c0,0,3.9,0.2,2.6-1.7
	s-7.5-17.2-7.5-17.2l8.3,3.2l-11.9-18.9c0,0,5.5-0.6,3.7-1.5s-6.3-10.8-6.3-10.8h7.1l-12-12.7c0,0,6.3-0.8,4.1-3.5s-9.8-9.3-9.8-9.3
	s9.3,1.3,9.8,1.3s-10.8-8-10.8-8c2,0.6,4,1,6.1,1.1c2.2,0-9.3-9.3-9.3-9.3s8.5,2,8.9,1.9s-8.7-10.3-8.7-10.3s3.9-1.3,4.9-1.7
	s-4.7-7.1-4.7-7.1l7.5-3.4c0,0-8.3-0.2-9.8-0.4s-6.7-7.1-5.5-6.2s8.3,1.1,7.7,0.8s-7.7-4.3-9.7-7.3s8.3,0,8.3,0s-10-4.9-11.6-6
	s8.5-2.4,8.5-2.4s-7.3-3.7-10.6-4.7s6.3-4.9,6.3-4.9s-10.8-1.7-9.7-1.9s7.1-3.5,7.1-3.5s-7.5-0.6-8.5-2.4s3.3-12.7,3.3-12.7l-6.1,5
	c0,0-3.2-17.2-4.3-13.1s-1.8,11.6-3.2,14.8s-6.9-4.7-6.9-4.7s0.6,6.5,3.9,11.4s-6.9-0.4-6.9-0.4s4.5,4.9,6.7,6.9s-14.6,1.1-11.4,2
	s11.2,3.5,9.3,3.5s-20.7,0.6-17.1,2s12.1,6.5,14,6.5c-1.8,0.3-11.2,2.4-11.2,2.4s11.4,3.4,12,3.7s-11.8,0.8-11,1.3s10.8,4.3,7.5,6.2
	s-8.9,2.8-6.9,3.2s7.5,1.3,7.5,1.3s-11.4,5.8-7.3,6c2.9,0.3,5.7,1.1,8.3,2.4c0,0-10.8,4.5-8.5,4.7s11.4,0.2,11.4,0.2
	s-12.2,7.1-15.2,9.3s3.5,0.8,3.5,0.8l-6.7,5.2c0,0,8.5-0.2,9.7-0.6s-9.5,11.2-11.4,11.8c-1,0.3,1.8-0.1,4.9-0.5
	c-3.1,2.8-10.7,11.5-10.2,8.1c0.6-3.8,6.5-13.2,4.4-11.9s-6.9,7.7-7.3,5.7c-0.3-1.7,3.7-10.8,3.2-13.8c2.5,0.2,6.2,0.2,6.2,0.2
	s-10-6.8-12.5-8.1s10-6.8,6.3-6.2s-11.9,2.1-10.9,1s6.1-14,4.4-13.2s-4,1.1-6.3,2.6s-1.7-13.6-3.3-12.7c-1.7,0.8-3.5,1.4-5.4,1.7
	c0,0-3.3-17.8-4.8-20c0,0-1.4,22-3.2,20.4s-4.2-6-4.2-6s4.2,16.9,1.7,17.2s-9.6-1.1-9.6-1.1s8.3,11.6,6.3,10.8s-6.8-2.3-6.8-2.3
	s7.8,6,5.6,6s-9.8,0.4-9.8,0.4s11.1,8.2,7.8,7.2s-12.8-2.4-12.8-2.4s17.7,15.2,12.8,14c-4.9-1.2-8.8-2.4-8.8-2.4s10.5,7.9,7.5,7.5
	s-10.1-0.6-10.1-0.6s8.7,7.6,9,8.4c0,0.1-0.1,0.1-0.5-0.1c-2.9-1.7-21.3-6-18-2.8s18.7,12.2,14.3,11.2S684,275,684,275
	s11.3,11.8,10.2,11.6s4.4,4.7,1.2,4.2s-16.9-5.5-14.2-3.2s12.3,9.3,10.2,9.3c-1.3,0-4.9,0.1-7.6,0.1c-6.9-4.2-16.5-10.2-13.4-9.1
	c4.6,1.8,18.5-6.4,15.5-6.4s-22.1,2.6-17.2,0.4s11.7-19.3,8.6-17.3s-8.8,7.2-8,5.3c0.9-2,11.9-23.9,9.7-22.6s-13.5,14.7-12.8,10.3
	c0.7-4.4,7.5-15.4,5.1-13.8s-8,9-8.4,6.6c-0.3-1.9,4.2-12.5,3.7-16c2.8,0.2,7.1,0.2,7.1,0.2s-11.5-7.9-14.4-9.4s11.5-7.9,7.3-7.2
	s-13.7,2.4-12.6,1.1s7.1-16.2,5.1-15.4s-4.6,1.3-7.3,3.1s-2-15.8-3.8-14.7s-6.2,2-6.2,2s-3.8-20.6-5.5-23.2c0,0-1.7,25.5-3.6,23.7
	s-4.8-6.9-4.8-6.9s4.8,19.6,2,19.9s-11.1-1.3-11.1-1.3s9.6,13.5,7.3,12.5s-7.8-2.6-7.8-2.6s8.9,6.9,6.5,6.9s-11.3,0.5-11.3,0.5
	s12.8,9.5,8.9,8.4s-14.7-2.8-14.7-2.8s20.4,17.6,14.7,16.3s-10.1-2.8-10.1-2.8s12.1,9.2,8.6,8.7s-11.6-0.7-11.6-0.7s10,8.8,10.3,9.7
	c0,0.1-0.1,0.1-0.5-0.2c-3.3-2-24.5-7-20.8-3.2c3.8,3.8,21.6,14.1,16.6,13s-13-2.6-13-2.6s13,13.6,11.7,13.4s5.1,5.5,1.3,4.8
	c-3.5-0.6-17-5.5-16.7-4.2c-4.9-2.8-10.7-6.3-8-5.6c4.1,1.1,9.4,0.2,9.4,0.2s-26.7-14.7-21.6-13c5,1.7,20.2-6.4,16.8-6.4
	s-24,2.6-18.8,0.4c5.2-2.2,12.7-19.3,9.4-17.3s-9.6,7.2-8.7,5.3s13-23.9,10.6-22.6s-14.7,14.7-13.9,10.3s8.2-15.4,5.5-13.8
	s-8.7,9-9.1,6.6c-0.4-1.9,4.6-12.5,4-16c3.1,0.2,7.7,0.2,7.7,0.2s-12.5-7.9-15.6-9.4s12.5-7.9,7.9-7.2s-14.9,2.4-13.7,1.1
	s7.7-16.2,5.5-15.4s-5,1.3-7.9,3.1s-2.2-15.8-4.1-14.7s-6.7,2-6.7,2s-4.1-20.6-6-23.2c0,0-1.8,25.5-4,23.7s-5.2-6.9-5.2-6.9
	s5.2,19.6,2.2,19.9s-12.1-1.3-12.1-1.3s10.5,13.5,7.9,12.5s-8.5-2.6-8.5-2.6s9.7,6.9,7,6.9s-12.3,0.5-12.3,0.5s13.9,9.5,9.7,8.4
	s-16-2.8-16-2.8s22.2,17.6,16,16.3s-11-2.8-11-2.8s13.2,9.2,9.4,8.7s-12.6-0.7-12.6-0.7s10.9,8.8,11.2,9.7c0,0.1-0.1,0.1-0.6-0.2
	c-3.6-2-26.7-7-22.6-3.2s23.6,14.1,18,13c-5.5-1.1-14.1-2.6-14.1-2.6s14.2,13.6,12.7,13.4s5.5,5.5,1.4,4.8s-21.1-6.4-17.8-3.7
	c1.5,1.2,4.8,3.5,7.7,5.7c-2.1,0.3-17.9,2.4-15.9,0.5s12.3-12,12.3-12s-18.2,8.3-16.1,5.1c2.1-3.1,8.1-10.9,8.1-10.9s-7.7,4-8.1,2.3
	s3.5-8.6,3.5-8.6H485l9.5-10c0,0-7.4,1.4-7.7,0s2.1-12,2.1-12l-6.3,2.9l2.1-7.7l-3.9,1.7l7.7-12.6l-11.9,5.7l-5.3-29l-4.9,29.5l-7-8
	c0,0,7,17.8,2.8,15.5s-15.4-8.9-15.4-8.9s14.8,14.9,9.5,12.9c-3.5-1.4-6.9-2.9-10.2-4.6c0,0,18.6,18.6,12.3,18.3s-19.3-1.4-19.3-1.4
	s11.9,10.9,7.7,9.7s-7.7,1.7-7.7,1.7s6.7,7.2,5.3,7.2h-8.8l6.7,8.6l-8.9-1.1c-3.3-1.8-7.3-4.4-8.3-6.3c-1.8-3.4,5.9-4.6,8.6-6
	s-10.6-4.6-10.6-4.6s8-3.1,9.1-3.1s-7.7-1.2-10.6-3.1s7.7-3.9,7.7-3.9s-8.6-1.5-8.9-2.2s3-17.1,3-17.1l-4.1,2.6l-1.3-6.4l-3.3-17.9
	c0,0-5.3,10.3-9.1,17.4s-7.1,9-8.2,7.4s-4.2-5.2-4-3.6s6.2,15.7,3.3,15.7s-14.6-2.2-14.6-2.2s8,13.4,4,12.5s-11.1-3.1-11.1-3.1
	s9.7,14.6,5.5,13.7c-1.7-0.4-4.5-0.8-7.3-1.1c-0.5-1.5-5.6-6.7-5.6-6.7l8.7-3.4c0,0-9.6-0.2-11.4-0.4s-7.8-7.1-6.4-6.2
	s9.6,1.1,8.9,0.8s-8.9-4.3-11.2-7.3s9.6,0,9.6,0s-11.7-4.9-13.5-6s9.8-2.4,9.8-2.4s-8.5-3.7-12.4-4.7s7.3-4.9,7.3-4.9
	s-12.6-1.7-11.2-1.9s8.2-3.5,8.2-3.5s-8.7-0.6-9.8-2.4s3.9-12.7,3.9-12.7l-7.1,5c0,0-3.7-17.2-5-13.1s-2.1,11.6-3.7,14.8
	s-8-4.7-8-4.7c0.5,4.1,2.1,8,4.6,11.4c3.9,4.9-8-0.4-8-0.4s5.3,4.9,7.8,6.9s-16.9,1.1-13.3,2s13,3.5,10.8,3.5s-24,0.6-19.9,2
	c4,1.4,14.1,6.5,16.2,6.5c-2.1,0.4-13,2.4-13,2.4s13.3,3.4,14,3.7s-13.7,0.8-12.8,1.3s12.6,4.3,8.7,6.2s-10.3,2.8-8,3.2
	s8.7,1.3,8.7,1.3s-13.3,5.8-8.5,6c3.3,0.3,6.6,1.1,9.6,2.4c0,0-12.6,4.5-9.8,4.7s13.3,0.2,13.3,0.2s-14.2,7.1-17.6,9.3
	s4.1,0.8,4.1,0.8l-7.8,5.2c0,0,9.8-0.2,11.2-0.6s-11,11.2-13.3,11.8s11.9-1.3,12.6-1.7S296,291,293.7,292.7s5.3-1.3,7.3-2.2
	c1-0.5-3,3.3-7.7,7.4c-6.1-4.1-13.1-8.9-10.5-7.8c4.3,1.8,17-6.4,14.2-6.4s-20.3,2.6-15.8,0.4s10.8-19.3,7.9-17.4s-8.1,7.2-7.3,5.3
	c0.8-2,11-23.9,8.9-22.6s-12.4,14.7-11.8,10.3c0.6-4.4,6.9-15.4,4.7-13.8s-7.3,9-7.7,6.6c-0.3-1.9,3.9-12.5,3.4-16
	c2.6,0.2,6.5,0.2,6.5,0.2s-10.5-7.9-13.2-9.4s10.5-7.9,6.7-7.2s-12.6,2.4-11.6,1.1s6.5-16.2,4.7-15.4s-4.3,1.3-6.7,3.1
	s-1.8-15.8-3.5-14.7s-5.7,2-5.7,2s-3.4-20.6-5.1-23.2c0,0-1.5,25.5-3.4,23.7c-1.8-1.8-4.4-6.9-4.4-6.9s4.4,19.6,1.8,19.9
	c-2.6,0.3-10.2-1.3-10.2-1.3s8.8,13.5,6.7,12.5s-7.1-2.6-7.1-2.6s8.2,6.9,5.9,6.9s-10.3,0.5-10.3,0.5s11.7,9.5,8.2,8.4
	s-13.5-2.8-13.5-2.8s18.7,17.6,13.5,16.3s-9.3-2.8-9.3-2.8s11.1,9.2,7.9,8.7c-3.2-0.5-10.6-0.7-10.6-0.7s9.2,8.8,9.5,9.7
	c0,0.1-0.1,0.1-0.5-0.2c-3-2-22.5-7-19.1-3.2s19.9,14.1,15.2,13s-12-2.6-12-2.6s12,13.6,10.8,13.4s4.7,5.5,1.2,4.8
	c-3.4-0.7-17.9-6.4-15-3.7c2.9,2.6,13,10.8,10.8,10.8s-11.6,0.2-11.6,0.2s17,10.8,14,10.5c-3-0.2-6.9,7.9-10.5,7.5
	c-3.7-0.4-2.6,1.1,0.6,2.4s7.5,1.5,0.2,4.2c-1.8,0.6-3.6,1.4-5.2,2.3c-3-5.3-5.5-9.7-4.6-8.4c2,2.9,7.1,4.6,6.6,3.5
	s-15.5-19.5-11-16.2s13.5,5.5,12.5,4.6s-16.7-14.9-11.3-12.3s10.6,1.1,8.6,0.2s-17.9-9.7-13.7-8.6s9.6,0.2,9.6,0.2
	s-27.2-14.7-22.1-13c5.1,1.7,20.6-6.4,17.2-6.4s-24.5,2.6-19.1,0.4s13-19.3,9.6-17.3s-9.8,7.3-8.8,5.3s13.2-23.9,10.8-22.6
	c-2.5,1.3-15,14.7-14.2,10.3s8.3-15.4,5.6-13.8c-2.7,1.5-8.8,9-9.3,6.6c-0.4-1.9,4.7-12.5,4.1-16c3.2,0.2,7.9,0.2,7.9,0.2
	s-12.8-7.9-15.9-9.4s12.8-7.9,8.1-7.2s-15.2,2.4-14,1.1c1.2-1.3,7.9-16.2,5.6-15.4c-2.2,0.9-5.1,1.3-8.1,3.1s-2.2-15.8-4.2-14.7
	s-6.9,2-6.9,2s-4-20.6-6-23.1c0,0-1.8,25.5-4,23.7s-5.3-6.9-5.3-6.9s5.3,19.6,2.2,19.9c-3.1,0.3-12.4-1.4-12.4-1.4
	s10.7,13.5,8.1,12.5c-2.6-1-8.6-2.6-8.6-2.6s9.9,6.9,7.2,6.9c-2.8,0-12.5,0.5-12.5,0.5s14.2,9.5,9.9,8.4s-16.4-2.8-16.4-2.8
	s22.6,17.6,16.4,16.3s-11.2-2.8-11.2-2.8s13.4,9.2,9.6,8.7s-12.9-0.7-12.9-0.7s11.1,8.8,11.5,9.7c0,0.1-0.1,0.1-0.6-0.2
	c-2.3-1.3-12.7-3.7-18.9-4.4c1.1-5.9,2.3-11.9,2.3-11.9l-5.7,3.7l-1.6-8.9l-4.6-24.7c0,0-7.3,14.3-12.6,24s-9.8,12.5-11.3,10.2
	s-5.8-7.2-5.5-5s8.6,21.8,4.6,21.8s-20.2-3-20.2-3s11,18.5,5.5,17.2S49.7,259,49.7,259s13.5,20.3,7.7,19c-3.6-0.8-10.8-1.6-15.8-2.2
	l-5.1-5.7c0,0,8.4-0.1,6-3.5C40.1,263.2,31,255,31,255s12,2.6,12.8,2.6s-13-10.3-13-10.3c2.6,0.9,5.2,1.6,7.9,2
	c2.8,0.2-10.8-11.5-10.8-11.5s10.8,3.3,11.4,3.1s-9.9-12.5-9.9-12.5s5.4-1,6.7-1.3s-5.2-8.5-5.2-8.5l10.3-2.9c0,0-10.9-1.2-12.9-1.6
	s-7.7-8.7-6.3-7.5s10.7,2.2,10,1.7s-9.5-5.7-11.6-9.3s10.9,1,10.9,1s-12.5-6.6-14.4-8.1c-1.9-1.4,11.4-1.8,11.4-1.8s-9-5-13.3-6.5
	s9-4.7,9-4.7s-14-3.2-12.4-3.2s9.9-3.1,9.9-3.1s-9.8-1.5-10.8-3.7s6.3-13.8,6.3-13.8L8.2,160c0,0-1.6-19.6-3.8-15.1
	c-1.5,3.1-2.9,8-4.4,11.9v320h851.3L971.5,476.5z M896.2,297.5c2.8,1.2,9.5-2.1,12.8-4.4c4.3,6.1,9.8,14.3,7.7,13.9
	c-2.7-0.4-5.4-0.5-8.1-0.5C902.2,302.3,893.4,296.3,896.2,297.5L896.2,297.5z M56.2,302.4c-1.5,0.2-3.4,4.8-6.1,4
	c-1.9-0.8-3.6-1.8-5.3-3l-2.4-4.3c0,0,7.3,0,5.2-1.2c-2.2-1.2-6.7-12.9-6.7-12.9l3.1,0.3C50,293,57.2,302.2,56.2,302.4L56.2,302.4z
	 M112.2,251.8c-0.2-0.4,0.4-3.9,1.1-8.1c7,4.5,19.5,11.3,14.9,10.4c-5.6-1.1-14.5-2.6-14.5-2.6l1.5,1.4
	C113.6,252.5,112.3,252.1,112.2,251.8L112.2,251.8z M126.8,264.8C126.8,264.8,126.8,264.9,126.8,264.8l-0.2,0.1L126.8,264.8z
	 M118.6,256.1c2.9,2.8,6.2,6.1,7.6,7.8c-3.5-0.7-9.7-2-12.4-3.8C111.6,258.7,115,257.2,118.6,256.1L118.6,256.1z M126,287.5
	c-0.8,0-1.6,0.2-2.2,0.7c-2.4-1.6-4.3-3.3-5.1-4.7c-0.2-0.4-0.4-0.9-0.3-1.5C123.3,284.8,127.9,287.6,126,287.5L126,287.5z
	 M128.2,269.7c-1.6-0.3-5.2-1.3-8.8-2.3c2.3-0.9,5.2-1.9,7.2-2.5C126.1,265.3,132.1,270.3,128.2,269.7L128.2,269.7z M367.4,248.2
	h0.2l0.8,1L367.4,248.2z M429.7,261l2.3-0.3l1.6,2C431.5,261.7,429.7,261,429.7,261L429.7,261z M437.4,267.6
	c1.2,1.7,2.4,3.4,3.4,5.2l-6.6-3.6C434.1,269.2,435.8,268.4,437.4,267.6L437.4,267.6z M439.2,281.2l-2.8-0.5l2.1-1
	C440.1,280.8,440.8,281.5,439.2,281.2L439.2,281.2z M440.8,274.6c-0.4-0.1-0.8-0.1-1.2-0.2l1.6-0.6
	C441.4,274.3,441.3,274.7,440.8,274.6L440.8,274.6z M507.7,262.6c3.5,2.6,6.3,5,4.9,5c-1.8,0-7.3,0.1-10.8,0.2
	C504.7,265.2,507.1,263,507.7,262.6L507.7,262.6z M504,292.3c-1.2,0.4-2.4,0.8-3.3,1.1c1.6-1.5,3.7-3.3,5.3-4.6
	C509,289.7,510.9,290.2,504,292.3z M515.5,278.3c-3.6-0.2-8.2,7.9-12.5,7.5c-0.6-0.1-1.3-0.1-1.9,0c-2.6-0.4-5.1-0.7-5.9-0.7
	c-1.8,0,8.4-9.2,8.4-9.2s-16.1,5.4-11.9,1.2c2-2,5.6-5.4,9-8.3C505.5,271.3,518.4,278.5,515.5,278.3z M595.3,284
	c2.4,1.3,5.1,1.7,7.8,1.3c4.1,3.3,9,7.2,7.3,7.2c-1.3,0-5,0.1-8,0.1C597.9,288.3,591.6,282.2,595.3,284z M613,303.3
	c-3.3-0.2-7.4,7.6-11.3,7.5c-2.4-4.3-4-7.4-3.3-6.3c1.9,2.9,7,4.6,6.5,3.5s-15.1-19.5-10.8-16.2c2.7,1.8,5.7,3.2,8.8,4.1
	C608.1,299,615.1,303.4,613,303.3z M686.9,311.3c-1.7-2-2.4-3.2-0.7-2.3c0.7,0.4,1.4,0.7,2.2,0.9
	C687.9,310.4,687.4,310.9,686.9,311.3L686.9,311.3z M693.8,306.2c-1.1,0.1-2,0.6-2.8,1.4c-4.6-2.8-12.2-7.7-9.3-6.8
	c1.9,0.5,3.8,0.7,5.8,0.5C691.4,303.6,695.3,306.2,693.8,306.2L693.8,306.2z M748.1,266.2c1.2-2.5,2.3-5.1,3.2-7.7
	c1.6-0.2,3.2-0.5,4.8-0.9C756.4,257.3,752.4,261.7,748.1,266.2L748.1,266.2z"/>
<linearGradient id="_Path_4_1_" gradientUnits="userSpaceOnUse" x1="496.83" y1="646.19" x2="496.83" y2="398.57" gradientTransform="matrix(1 0 0 1 8.32 -166.67)">
	<stop  offset="0" style="stop-color:#FFFFFF;stop-opacity:0"/>
	<stop  offset="0.15" style="stop-color:#FFFFFF;stop-opacity:1.000000e-02"/>
	<stop  offset="0.28" style="stop-color:#FFFFFF;stop-opacity:5.000000e-02"/>
	<stop  offset="0.4" style="stop-color:#FFFFFF;stop-opacity:0.12"/>
	<stop  offset="0.52" style="stop-color:#FFFFFF;stop-opacity:0.22"/>
	<stop  offset="0.63" style="stop-color:#FFFFFF;stop-opacity:0.34"/>
	<stop  offset="0.74" style="stop-color:#FFFFFF;stop-opacity:0.5"/>
	<stop  offset="0.85" style="stop-color:#FFFFFF;stop-opacity:0.68"/>
	<stop  offset="0.95" style="stop-color:#FFFFFF;stop-opacity:0.88"/>
	<stop  offset="1" style="stop-color:#FFFFFF"/>
</linearGradient>
<path id="_Path_4" class="st6" d="M504.9,344.2c0,0-17.8-9.9-47,10.6s-26.8,24.8-63.3,28.8s-27.5,22.1-68.7,28.6s-110.6,7-110.6,7
	H795c0,0-149.5-11.8-170.5-23.8c-20.9-12-36-21.2-54.6-20C551.4,376.7,531.6,344,504.9,344.2z"/>
<linearGradient id="_Path_5_1_" gradientUnits="userSpaceOnUse" x1="734.58" y1="520.38" x2="734.58" y2="171.21" gradientTransform="matrix(1 0 0 1 8.32 -166.67)">
	<stop  offset="0" style="stop-color:#FFFFFF;stop-opacity:0"/>
	<stop  offset="9.000000e-02" style="stop-color:#FFFFFF;stop-opacity:5.000000e-02"/>
	<stop  offset="0.25" style="stop-color:#FFFFFF;stop-opacity:0.18"/>
	<stop  offset="0.48" style="stop-color:#FFFFFF;stop-opacity:0.4"/>
	<stop  offset="0.74" style="stop-color:#FFFFFF;stop-opacity:0.69"/>
	<stop  offset="1" style="stop-color:#FFFFFF"/>
</linearGradient>
<path id="_Path_5" class="st7" d="M971.5,238c-37.1-0.9-47.7-46.3-79.1-33.8c-31.7,12.7-44.3,25.3-65.5,59.1
	c-21.1,33.8-67.3,6.3-91.8,27.5c-24.4,21.1-22.3,40.1-41.3,42.2s-145.7,12.7-145.7,12.7l-33.8,16.9h457.1L971.5,238L971.5,238z"/>
<linearGradient id="_Path_6_1_" gradientUnits="userSpaceOnUse" x1="216.43" y1="554.36" x2="216.43" y2="167.79" gradientTransform="matrix(1 0 0 1 8.32 -166.67)">
	<stop  offset="0" style="stop-color:#FFFFFF;stop-opacity:0"/>
	<stop  offset="9.000000e-02" style="stop-color:#FFFFFF;stop-opacity:5.000000e-02"/>
	<stop  offset="0.25" style="stop-color:#FFFFFF;stop-opacity:0.18"/>
	<stop  offset="0.48" style="stop-color:#FFFFFF;stop-opacity:0.4"/>
	<stop  offset="0.74" style="stop-color:#FFFFFF;stop-opacity:0.69"/>
	<stop  offset="1" style="stop-color:#FFFFFF"/>
</linearGradient>
<path id="_Path_6" class="st8" d="M0,397.5h449.6l-46.1-18.7c0,0-15.4-32.7-30.8-30.4c-15.4,2.3-20.5-25.7-34.2-28.1
	c-13.7-2.3-10.2-39.8-32.5-37.4c-22.2,2.3-32.5,60.7-58.1,47.9c-25.6-12.8-21-57.2-46.4-36.2s-51-46.8-64.7-42.1
	c-13.7,4.7-37-16.4-52.6,14s-44.7,32.8-44.7,32.8s6.8-39.8-23.9-39.8c-5.6-0.1-11.1-1.8-15.7-5L0,397.5z"/>
<path id="_Path_7" class="st9" d="M357,357c-2.9-3.9-6.4-8.2-9.1-11.4c-8.5,4.6-20.6,11.1-20.6,11.1l4.3,1.1l-8.9,4.2l12.3-0.6
	l-4.6,3.8C330.4,365.2,347.6,363.1,357,357z"/>
<path id="_Path_8" class="st9" d="M356,341.1c-0.1,0.1-1.3,0.8-3.2,1.8c2.7,0.6,5.4,1.4,8,2.3c2.8,1.1-2.3-4.6-6.3-8.8
	c-1.3,2.2-2.9,4.1-4.9,5.7l1.2,0.3C352.5,341.9,354.2,341.5,356,341.1z"/>
<path id="_Path_9" class="st9" d="M347.5,375.8c-3.2,2.7-6.4,5.1-7.9,5.7c-0.2,0.1-0.5,0.2-0.7,0.4c6.4,1.3,15.9,4.7,18.1,6.5
	c0.5,0.4,0.6,0.4,0.6,0.2C357.4,387.7,350.7,379.6,347.5,375.8z"/>
<path id="_Path_10" class="st9" d="M355,367.7l-0.5-0.6c-0.7,0.6-1.5,1.2-2.4,1.6C352.1,368.7,353.5,368.2,355,367.7z"/>
<path id="_Path_11" class="st9" d="M117.7,375.5c-1.7,0.4,8.3-1.4,15.1-2.9c-1.6-2.6-3.6-5.7-5.3-8.5
	C124.9,367.8,119.6,375.1,117.7,375.5z"/>
<path id="_Path_12" class="st9" d="M54.1,368.8c0.7-0.2,1.3-0.5,1.9-0.8c-0.5-0.1-1-0.2-1.5-0.4c-1.7-0.6,1.6-1.1,5.3-1.8
	c2-1.2,4.1-2.6,6.4-4.1c-1-1.2-1.8-2.4-2.6-3.6C58.5,362.5,49.6,370.3,54.1,368.8z"/>
<path id="_Path_13" class="st9" d="M349.6,374c3.2,0.1,6.3,0.4,9.5,0.9c2,0.4-0.4-2.9-3.4-6.3C354.2,370,352,372,349.6,374z"/>
<path id="_Path_14" class="st9" d="M126.8,363l-1.1-1.6c-0.4,0.7-0.8,1.4-1.3,2C123.6,364.3,125.3,363.7,126.8,363z"/>
<path id="_Path_15" class="st9" d="M72.8,341.1c-0.5,0.8-1,1.6-1.5,2.4c2,0.9,5.4,2.3,6.9,3C76.2,344.9,74.4,343.1,72.8,341.1z"/>
<path id="_Path_16" class="st9" d="M70.7,344.4c-0.7,1.1-1.5,2.2-2.3,3.3c-2,2.3,3.6-0.8,3.6-0.8l-5.2,8.5l-1,0.8
	c1.9,0.9,3.6,1.6,5.3,2.2c2.7-1.9,5.2-3.7,7.2-5.2C75.6,350.5,73,347.5,70.7,344.4z"/>
<path id="_Path_17" class="st9" d="M75.2,359.7c10.7,3.1,14.3,0.2,14.3,0.2c-3.4-0.4-7-2.8-10.2-5.7
	C78.2,355.8,76.7,357.8,75.2,359.7z"/>
<path id="_Path_18" class="st9" d="M193.7,379.9c-3,2,2.5,1.4,8.3,0.6c-1.7-1.8-3.2-3.8-4.6-5.9
	C196.2,377.2,194.9,379.2,193.7,379.9z"/>
<path id="_Path_19" class="st9" d="M357,364.5c1.2,0.4,2.5,0.9,3.9,1.3c2.1,0.7,1.1-1.7-1.3-5.2C358.8,362,357.9,363.3,357,364.5z"
	/>
<path id="_Path_20" class="st9" d="M632.9,395.5c0,0,10.2-2.8,7.7-3.1c-1.6-0.2-7.9-5.7-11.9-9.4c-0.7,4.2-2.9,11.9-6.2,14.2
	c1.4-0.7,2.6-1.5,3.8-2.5c0.7-0.8-8.5,12.2-11.2,13.8l-0.1,0.1c11.9-0.8,29.5-3.6,30.5-3.6C646.9,405,632.9,395.5,632.9,395.5z"/>
<path id="_Path_21" class="st9" d="M525.5,446.2l0.1,0.2C525.8,446.3,525.8,446.3,525.5,446.2L525.5,446.2z"/>
<path id="_Path_22" class="st10" d="M45.8,225.2c0.1-0.2-0.1-0.1-0.5,0.3C45.5,225.5,45.7,225.3,45.8,225.2z"/>
<path id="_Path_23" class="st10" d="M18.3,183.6l0.1-0.2C19,182.8,18.8,182.9,18.3,183.6z"/>
<path id="_Path_24" class="st10" d="M569.4,229.8c0,0.5,0.2,2.6,0.5,5.5C569.9,233.5,569.7,231.6,569.4,229.8z"/>
<path id="_Path_25" class="st10" d="M616,332.5c0.1-0.2-0.1-0.1-0.4,0.3C615.7,332.7,615.9,332.6,616,332.5z"/>
<path id="_Path_26" class="st10" d="M591.7,295.7l0.1-0.2C592.2,295,592.1,295.2,591.7,295.7z"/>
<path id="_Path_27" class="st10" d="M535.8,361.1c0.3,0.3,0.6,0.5,0.9,0.6C535.7,360.9,535.3,360.6,535.8,361.1z"/>
<path id="_Path_28" class="st10" d="M226.3,310.4c0.4,0.4,0.8,0.7,1.3,0.9C226.3,310.2,225.6,309.7,226.3,310.4z"/>
<path id="_Path_29" class="st10" d="M350.1,288c0.2,0,0.5-0.1,0.6-0.3C350.9,287.5,350.7,287.6,350.1,288z"/>
<path id="_Path_30" class="st10" d="M319,238.5l0.2-0.2C319.9,237.7,319.7,237.8,319,238.5z"/>
<path id="_Path_31" class="st10" d="M293.9,153.5c-0.1,0.6,0,3.3,0.1,6.9C294,155.9,294,152.8,293.9,153.5z"/>
<path id="_Path_32" class="st10" d="M87.3,254.6c0,0.6,0.2,3,0.6,6.2C87.8,258.7,87.6,256.6,87.3,254.6z"/>
<path id="_Path_33" class="st10" d="M112,329.1l0.2-0.2C112.6,328.3,112.5,328.5,112,329.1z"/>
<path id="_Path_34" class="st10" d="M815.3,341l0.2-0.2C815.9,340.2,815.7,340.3,815.3,341z"/>
<path id="_Path_35" class="st10" d="M842.1,382.6c0.1-0.2-0.1-0.1-0.5,0.3C841.9,382.9,842,382.8,842.1,382.6z"/>
<path id="_Path_36" class="st10" d="M790.5,266.5c0,0.6,0.2,3,0.6,6.2C791.1,270.6,790.9,268.5,790.5,266.5z"/>
<path id="_Path_37" class="st10" d="M966.2,228.3c-3,0-8.2,0.7-14-3.3s1.9,4.2,4.2,5.2s-7.2,2.1-6.1,2.5s8.6,1.4,11.2,0.9
	c2.2-0.4,9.6-1.2,10,0v-9.9C970.7,224.9,968.6,228.3,966.2,228.3z"/>
<path id="_Path_38" class="st10" d="M970.9,234.4c-3.2,2.5-3,5.4-7.2,4.9s-19.4-4.9-21.9-7s4.2,7,9.5,7.7s-6.5,4.4-5.1,4.4
	s9.8-0.5,9.8-0.5s-9.3,2.8-6.1,3.3s12.8,0.7,13.5,0.7s-1.4,2.8-1.4,2.8s3.5-1,6.5-1.6s3.5,5.6,1.2,7.2s-12.6,0-17.5-2.1
	s-10.9-4.9-13-6.6s4.4,7.5,8,8.7c3.7,1.2-4.2,3.7-4.2,3.7s15.2-2.3,14.5-0.9s-10.9,4.4-6.8,3.9c4-0.5,11.2-1.2,11.2-1.2
	s-11.2,4.7-7.3,4.4c3.4-0.3,15.6-3.9,16.9-2.6v-29.7C971.3,234,971.1,234.2,970.9,234.4z"/>
<path id="_Path_39" class="st10" d="M969.7,204.8l1.8,0.1v-1.8C970.9,203.8,970.3,204.3,969.7,204.8z"/>
<path id="_Path_40" class="st10" d="M971.5,172.3v-2.9c-0.3-0.5-0.4-0.9-0.4-0.9S971.2,169.9,971.5,172.3z"/>
<path id="_Path_41" class="st10" d="M4,139.6c1.5-1.4-2.2,0.7-4,1.4v3.6C1.2,142.8,2.5,141.1,4,139.6z"/>
<path id="_Path_42" class="st10" d="M0,135.4v3.9c1.6-2.6,5.1-7,5.1-7L0,135.4z"/>
<path id="_Path_43" class="st10" d="M965.8,195.9c-1.2,0.2-9.8-0.7-9.8-0.7s7.9,3.3,7,4s-5.6,2.1-5.6,2.1s11.9,0.1,14.1,0.6v-7.8
	c-3.2-1.1-14.4-6.6-14.4-6.6S967,195.7,965.8,195.9z"/>
<path id="_Path_44" class="st10" d="M955.2,207.5c-0.5-0.2,10.5,5.8,10.5,5.8s-16.5,1.2-14,1.9s10,1,10,1s-7.3,3.7-6.5,3.7
	s8.9-0.7,8.9-0.7l-5.1,4.4l12.5-0.5v-10.9c-0.3,0.1-0.6,0.2-0.9,0.2C967.2,212.3,955.7,207.6,955.2,207.5z"/>
<path id="_Path_45" class="st10" d="M215.3,452.1L215.3,452.1C215.3,451.9,215.3,451.9,215.3,452.1z"/>
<path id="_Path_46" class="st10" d="M933.4,263.3c0.3,0.3,0.6,0.5,0.9,0.6C933.2,262.9,932.6,262.5,933.4,263.3z"/>
<path id="_Path_47" class="st10" d="M749.4,304.8l0.7-0.6C749.9,304.4,749.7,304.6,749.4,304.8z"/>
<path id="_Path_48" class="st10" d="M658.1,279.3c0.3,0.3,0.6,0.5,0.9,0.6C657.8,278.9,657.3,278.4,658.1,279.3z"/>
<path id="_Path_49" class="st10" d="M763.1,365.6c0.1-0.1-0.2,0-0.7,0.4C762.7,366,762.9,365.8,763.1,365.6z"/>
<path id="_Path_50" class="st9" d="M126.8,264.8l-0.2,0.1L126.8,264.8C126.8,264.9,126.8,264.9,126.8,264.8z"/>
<path id="_Path_51" class="st9" d="M118.6,256.2c-3.6,1-7,2.5-4.8,4c2.7,1.8,8.9,3.1,12.4,3.8C124.8,262.3,121.5,259,118.6,256.2z"
	/>
<path id="_Path_52" class="st9" d="M126.6,264.9c-2,0.6-4.9,1.7-7.2,2.5c3.6,1,7.2,2,8.9,2.3C132.1,270.3,126.1,265.3,126.6,264.9z"
	/>
<path id="_Path_53" class="st9" d="M118.4,282c0,0.5,0.1,1,0.3,1.5c0.7,1.4,2.7,3.1,5.1,4.7c0.7-0.4,1.4-0.7,2.2-0.7
	C127.9,287.6,123.3,284.8,118.4,282z"/>
<path id="_Path_54" class="st9" d="M367.4,248.2l1,1l-0.8-1H367.4z"/>
<path id="_Path_55" class="st9" d="M113.7,251.5c0,0,8.8,1.5,14.5,2.6c4.6,0.9-7.9-5.9-14.9-10.4c-0.7,4.2-1.3,7.7-1.1,8.1
	s1.4,0.7,3,1.1L113.7,251.5z"/>
<path id="_Path_56" class="st9" d="M968.8,266.6c0,0-4,7.8-3.6,9.8c0.2,1.3,4-0.3,6.3-1.5v-0.5l-1.6-1h1.7v-10l-0.9-0.8
	c-0.7-0.7-0.3-0.8,0.9-0.6v-6.1l-9.2,10.8L968.8,266.6z"/>
<path id="_Path_57" class="st9" d="M971.2,291.7l-2,2.2c-0.6,0.7,0.5,0.9,2.4,0.9V292C971.4,292,971.3,291.9,971.2,291.7z"/>
<path id="_Path_58" class="st9" d="M969.3,311.7l2.2-1V310l-2.7,0.2C968.1,311.2,968.4,311.6,969.3,311.7z"/>
<path id="_Path_59" class="st9" d="M971.5,285v-8.4c-2,2.9-5,7.2-6.3,9.5C964.2,287.8,967.5,286.7,971.5,285z"/>
<path id="_Path_60" class="st9" d="M908.6,306.6c2.7,0,5.4,0.1,8.1,0.5c2.1,0.4-3.4-7.8-7.7-13.9c-3.2,2.3-9.9,5.5-12.8,4.4
	C893.4,296.3,902.2,302.3,908.6,306.6z"/>
<path id="_Path_61" class="st9" d="M429.7,261c0,0,1.8,0.7,3.9,1.7l-1.6-2L429.7,261z"/>
<path id="_Path_62" class="st9" d="M40.9,285c0,0,4.5,11.6,6.7,12.9s-5.2,1.2-5.2,1.2l2.4,4.3c1.7,1.2,3.5,2.2,5.3,3
	c2.8,0.8,4.6-3.8,6.1-4c0.9-0.2-6.2-9.5-12.3-17.1L40.9,285z"/>
<path id="_Path_63" class="st9" d="M687.4,301.2c-1.9,0.1-3.9,0-5.8-0.5c-2.9-0.8,4.8,4,9.3,6.8c0.7-0.8,1.7-1.3,2.8-1.4
	C695.3,306.2,691.4,303.6,687.4,301.2z"/>
<path id="_Path_64" class="st9" d="M686.9,311.3c0.5-0.4,1-0.9,1.5-1.3c-0.7-0.2-1.5-0.5-2.2-0.9C684.5,308,685.2,309.3,686.9,311.3
	z"/>
<path id="_Path_65" class="st9" d="M751.3,258.5c-0.9,2.6-2,5.2-3.2,7.7c4.3-4.5,8.3-8.8,8-8.6C754.5,258,752.9,258.3,751.3,258.5z"
	/>
<polygon id="_Path_66" class="st9" points="947.3,457.3 949,461.4 899.7,461.4 869.5,461.4 851.2,461.4 851.2,476.9 0,476.9 
	0,480.1 971.5,480.1 971.5,454.4 "/>
<path id="_Path_67" class="st9" d="M602.9,295.8c-3.2-0.9-6.1-2.3-8.8-4.1c-4.3-3.3,10.3,15.2,10.8,16.2c0.5,1.1-4.6-0.7-6.5-3.5
	c-0.8-1.1,0.9,2,3.3,6.3c3.9,0.2,8-7.7,11.3-7.5C615.1,303.4,608.1,299,602.9,295.8z"/>
<path id="_Path_68" class="st9" d="M439.7,274.4c0.5,0,0.9,0.1,1.2,0.2s0.5-0.2,0.4-0.7L439.7,274.4z"/>
<path id="_Path_69" class="st9" d="M602.4,292.6c3-0.1,6.6-0.1,8-0.1c1.7,0-3.1-3.9-7.3-7.2c-2.7,0.4-5.4,0-7.8-1.3
	C591.6,282.2,597.9,288.3,602.4,292.6z"/>
<path id="_Path_70" class="st9" d="M507.7,262.6c-0.6,0.5-3,2.6-5.9,5.2c3.5-0.1,9-0.2,10.8-0.2C514,267.6,511.2,265.2,507.7,262.6z
	"/>
<path id="_Path_71" class="st9" d="M438.6,279.7l-2.1,1l2.8,0.5C440.8,281.5,440.1,280.8,438.6,279.7z"/>
<path id="_Path_72" class="st9" d="M506,288.9c-1.6,1.3-3.7,3.1-5.3,4.6c1-0.4,2.1-0.7,3.3-1.1C510.9,290.2,509,289.7,506,288.9z"/>
<path id="_Path_73" class="st9" d="M437.4,267.6c-1.6,0.8-3.2,1.6-3.2,1.6l6.6,3.6C439.8,271,438.6,269.3,437.4,267.6z"/>
<path id="_Path_74" class="st9" d="M500.7,268.7c-3.3,3-7,6.3-9,8.3c-4.2,4.3,11.9-1.2,11.9-1.2s-10.2,9.2-8.4,9.2
	c0.7,0,3.2,0.3,5.9,0.7c0.6-0.1,1.3-0.1,1.9,0c4.3,0.4,8.9-7.7,12.5-7.5C518.4,278.5,505.5,271.3,500.7,268.7z"/>
<path id="_Path_75" class="st11" d="M970.4,238.3c0.3,0.4,0.7,0.7,1.1,1V237C970.2,237,969.6,237.3,970.4,238.3z"/>
<path id="_Path_76" class="st11" d="M970.6,262.5l0.9,0.8V262C970.3,261.8,969.9,261.9,970.6,262.5z"/>
<path id="_Path_77" class="st11" d="M971.5,274.3v-1.1h-1.7L971.5,274.3z"/>
<path id="_Path_78" class="st9" d="M971.5,65.6v-0.3l-0.3,0.3H971.5z"/>
<path id="_Path_79" class="st12" d="M98.9,70.3L98.9,70.3L98.9,70.3z"/>
<path id="_Path_80" class="st12" d="M98.8,70.2L98.8,70.2L98.8,70.2z"/>
<path id="_Path_81" class="st12" d="M98.6,70.2l-0.2-0.1L98.6,70.2z"/>
<path id="_Path_82" class="st12" d="M98.9,70.3L98.9,70.3L98.9,70.3z"/>
<path id="_Path_83" class="st12" d="M374.9,108.4c0,0,0.1-0.5,0.1-1.1C374.2,107.7,374.9,108.4,374.9,108.4z"/>
<path id="_Path_84" class="st12" d="M98.4,70.1L98.4,70.1L98.4,70.1z"/>
<path id="_Path_85" class="st12" d="M871.3,84.5C870.3,85,870.7,84.9,871.3,84.5z"/>
<path id="_Path_86" class="st12" d="M729.4,125.7h-0.5C729,125.8,729.2,125.8,729.4,125.7z"/>
<path id="_Path_87" class="st12" d="M97.4,69.6l-0.2-0.1L97.4,69.6z"/>
<path id="_Path_88" class="st12" d="M97.6,69.7L97.6,69.7L97.6,69.7z"/>
<path id="_Path_89" class="st12" d="M97.3,69.6L97.3,69.6L97.3,69.6z"/>
<path id="_Path_90" class="st12" d="M98.3,70.1L98.2,70L98.3,70.1z"/>
<path id="_Path_91" class="st12" d="M97.2,69.5"/>
<path id="_Path_92" class="st12" d="M98.2,70L98,69.9L98.2,70z"/>
<path id="_Path_93" class="st12" d="M97.7,69.7L97.7,69.7L97.7,69.7z"/>
<path id="_Path_94" class="st12" d="M98,69.9l-0.3-0.1L98,69.9z"/>
<path id="_Path_95" class="st13" d="M551.3,72.7l0.3-0.1C551.6,72.6,551.1,72.6,551.3,72.7z"/>
<path id="_Compound_Path_2" class="st14" d="M960.4,270.8c-1.9-0.5-21.2-4.4-26-6.9c2.2,1.9,6.5,5.5,8.7,5.8c3.3,0.5-4,3.9-4,3.9
	s14.2-2.8,13.1-2.5s-13,7.3-9.8,7c3.2-0.4,14-4.4,14-4.4s-7.2,5.1-3.7,4.5c2.6-0.4,5.2-1,7.7-1.8l-0.7,4.9c0,0-12.6,1-14.2,0.9
	s-12.8-2.1-15.2-4.5s4.4,6.1,11.6,7.5c0,0-4.7,4.2-2.8,3.7s10.7-2.1,10.7-2.1s-6.7,4.7-5.8,4.5s9.5-2.1,9.5-2.1l-2.8,4.5
	c0,0-15.1,2.3-25.9-5.1s8.9,10,12.3,11s-3.5,5.8-3.5,5.8s14.4-4.2,11-2.6s-3.7,3.5-3.7,3.5l11.5-2.2c0,0-2.1,6.8-6,6.8
	s-26.3-0.2-32.6-8.6c0,0,9.8,12.8,14.7,13.3S924,320,924,320s9.6-0.7,11.2-1s-3.7,4-3.7,4s9.6-0.7,11.9-2.3c2.3-1.6-5.6,4.9-5.6,4.9
	s15.1,0,14.5,0.3c-0.5,0.4-5.1,7.4-9.1,7.4s-26.8-2.3-31.5-7s3.7,8.2,10.9,9.6s-3.8,3.1-4.4,3c-0.5-0.2,9.8,3.5,12.1,4.4
	s7.5,9.1,12.3,10.1s-21.5-2.8-27.3-6.6c-5.8-3.9,6.8,6.3,8.6,6.8s-11.2-0.3-14.9-3.5c-3.7-3.1,4.2,7.7,8.8,9.3
	c4.5,1.6-1.6,3.8-2.5,3.5c-0.9-0.4,14.4,8,13,8c-1.1,0-33.6,5-34,2.1c-0.4-2.8,4.5-17.9,4-22.9c3,0.3,7.6,0.3,7.6,0.3
	s-12.3-11.3-15.4-13.5s12.3-11.3,7.8-10.3s-14.7,3.5-13.5,1.6s7.6-23.2,5.4-22s-5,1.9-7.8,4.4s-2.1-22.6-4-21s-6.6,2.8-6.6,2.8
	s-4-29.5-5.9-33.1c0,0-1.8,36.5-3.9,33.9s-5.1-9.9-5.1-9.9s5.1,28,2.1,28.5s-11.9-1.9-11.9-1.9s10.3,19.3,7.8,17.9s-8.3-3.8-8.3-3.8
	s9.6,9.9,6.9,9.9s-12.1,0.7-12.1,0.7s13.7,13.6,9.6,12s-15.8-4-15.8-4s21.8,25.2,15.8,23.3c-3.7-1.1-7.3-2.5-10.8-4
	c0,0,13,13.2,9.2,12.5c-4.1-0.5-8.3-0.8-12.4-0.9c0,0,10.7,12.6,11,13.9c0,0.2-0.1,0.1-0.6-0.2c-2.1-1.3-4.4-2.4-6.8-3.1
	c0.5-0.5,0.8-0.9,1.1-1.2c-0.8,0.3-1.5,0.6-2.3,0.8c-3.9-1.4-7.9-2.5-12-3c2.6-3.4,4.9-6.8,4.9-6.8s-6,3-4.5,1.4s3.7-7.2,3.8-8.1
	c0.1-0.8-11.8,8.2-15.8,11.5c2.4-2.5,6.8-8.3,6.8-8.3l-1.8-1.5l2.8-5c0,0-12,2.8-10.7,2s7-19.9,7-19.9l-12.3,5.4
	c0,0,6.1-8.2,7.7-10.4c-2.3,2.6-12,2.6-14.9,3.5s5.7-7.2,5.7-7.2s0.7-2.5-1.8-2s3.4-6.8,3.4-6.8c-1.2,1-2.6,1.8-4.1,2.3
	c-1.8,0.5,5.3-11,6.4-13.2c1.2-2.2-8,6.8-9.2,7.3s1-3.3,1-3.3c-0.4-0.6-1.2-0.9-1.9-0.8c-1.3,0.2,0-2,0.9-3.1s3.4-5.4,4.4-6.5
	s-7,1.4-7.6,1.5s1.8-3.1,5.4-6.1s-1,0-4.1,1.2s6.3-8.1,6.3-8.1s-6.6,3.4-8.2,3.7s2.6-5.1,4.2-6.7s-3.1,1.2-4.5,1.5s5.5-8.9,5.5-8.9
	l-8.4,5.3c0,0-1.7-13.9-2.7-22.4c0.7,8.8,1.6,23.8,0,22.8c-2.3-1.5-10.7-5.4-10.7-5.4s13.4,9.3,11.3,8.7s-10.9-2.9-10.9-2.9
	s14.4,12,12.5,11.4s-7.6-3.3-7.6-3.3s6.4,4.6,4.5,4.1s-17.9-7.2-14.8-4.6s12.8,6.4,10.5,7s-6,3.5-6,3.5s4.7-1.7,5.5-1.5
	s-3.3,5-3.3,5l8.6,6.2c0,0-14-3.5-14.8-3.9s9.5,8.9,10.5,9.3s-7.4,1-7.4,1c1.8,1.3,3.8,2.5,5.8,3.5c1.8,0.6-3.9,4.1-5.1,3.9
	s10.3,1.9,11.5,1.5s-8.2,5.2-8.2,5.2l8.8,0.2c0,0-6.2,11.8-22,1c0,0,8.7,10.8,11.7,12.8c-2.3-1-8.6-3.7-8.6-3.7s10.8,16,20,17.1
	c0,0-6.6,5.2-28.3-6c0,0,3.8,7.5,6.6,9.3c1.5,1-4,1.9-8.5,2.7l2.8-2.8c0,0-7.9,3.3-13.5,4c-4.8,0.6,7.4-10.6,10.5-13.1
	c-2.4,0.9-10,1.5-6.7,0.3c3.8-1.4,6.8-8,6.8-8s-13.1,6.7-15.9,6.5s4.7-6.8,7-8s7-6.5,7.7-7.5c0.5-0.8-6.9,1.5-9.4,2.5
	c2.7-2.2,9.9-14.4,9.9-14.4s-19.4,10.9-22.8,10.9s-10-5.2-7-5.6c3-0.3,12.4-6.5,13.1-6.6s-6.5-1-6.5-1l10.8-5.2c0,0-7.7,0.6-8.8,0.7
	c1-0.3,6.2-4,6.2-4s-6.7,0.5-3.8-0.9c2.8-1.4,8.9-12.3,8.9-12.3s-8.9,6.5-11.4,6.6s-6.1-3.1-4.9-3.7c1-0.5,10.8-8.7,13.6-11.1
	c-7.6,6.1-19.7,4.6-19.7,4.6l6.8-2.5c0,0-8.9-3-2.5-3.2c6.5-0.1,14.5-16.6,10.2-10.5s-17.3,6.3-18.4,6.1s-6.3-4.2-6.3-4.2
	s12.8,0.2,16.3,0.4c3.5,0.2-5.4-3-4.4-3s11.2-3.7,11.2-3.7s-14.7-0.4-10.3-1.9c4.4-1.6,10-8.9,10-8.9c-7.5,9.1-24.7,6.5-23.3,6.5
	s6.1-1.9,8.6-1.9s-11.7-2.5-15.4-3.8c-3.7-1.4,19.4-2.3,20.1-2.3S725,275,725,275s6-1.4,7.7-1.2s-8.9-0.9-5.6-1.4
	c3.3-0.5,10.2-7.5,9.3-6.8s-18.7,7.9-21.4,6.1s8.9-4.4,8.9-4.4c-2.4,0.3-4.9-0.1-7.2-1c-3.3-1.6,5.1-4.2,5.1-4.2l8.8-2.8l-8.2-0.9
	c0,0,8.4-4.7,12.6-7.2s-13,4.4-18.2,5.8c-5.2,1.4-6.1-1.8-5.1-1.8s11.2-2.6,10.5-2.5s-8.9-1.2-5.8-1.6s10.2-6.1,10.2-6.1
	s-8.4,0.7-1.6-4.7s5.6-6,3.7-4s-10.9,6.8-14.9,8s-2.3-0.7-2.8-4.4s7.7-4,10.9-5.2s-6.3-0.2-6.3-0.2l10.7-6.5c0,0-11.8,1.7-12.9,1.9
	c1.1-0.5,11.2-9.2,14.1-11.7s-21.5,10-22.2,10s0.9-2.8,0.9-2.8l-0.3-2.8c0,0,12.4-9.5,15.1-11.2s-15.8,5.2-15.8,5.2l6-6
	c-1.5,0.3-3.1,0.7-4.5,1.2c-2.6,0.9,8.2-7.4,10.3-9.6s-12.1,5.2-12.1,5.2s-3.8-36.6-4-35.4s0,18.4-1.8,17s-3.2-4.9-3.2-4.9
	s3,26.3,1,25.9s-15.1-6.8-15.1-6.8s10,8.2,8.8,8.4s-9.8-0.7-9.8-0.7s7.9,3.3,7,4s-5.6,2.1-5.6,2.1s13.5,0.2,14.4,0.7
	s-2.1,2.8-2.1,2.8l4.2,0.4c0,0,0,7.2-3.3,7.2s-14.9-4.7-15.4-4.9s10.4,5.9,10.4,5.9s-16.5,1.2-14,1.9s10,1,10,1s-7.3,3.7-6.5,3.7
	s8.9-0.7,8.9-0.7l-5.1,4.4l12.8-0.5c0,0-2.6,5.2-5.6,5.2s-8.2,0.7-14-3.3s1.9,4.2,4.2,5.2s-7.2,2.1-6.1,2.5s8.6,1.4,11.2,0.9
	s12.6-1.6,9.5,0.9s-3,5.4-7.2,4.9s-19.4-4.9-21.9-7s4.2,7,9.5,7.7c5.2,0.7-6.5,4.4-5.1,4.4s9.8-0.5,9.8-0.5s-9.3,2.8-6.1,3.3
	s12.8,0.7,13.5,0.7s-1.4,2.8-1.4,2.8s3.5-1,6.5-1.6c3-0.5,3.5,5.6,1.2,7.2s-12.6,0-17.5-2.1s-10.9-4.9-13-6.6s4.4,7.5,8,8.8
	c3.7,1.2-4.2,3.7-4.2,3.7s15.2-2.3,14.5-0.9s-10.9,4.4-6.8,3.8c4-0.5,11.2-1.2,11.2-1.2s-11.2,4.7-7.3,4.4
	c3.9-0.4,18.7-4.9,16.8-1.9s-8.9,7.2-11,6.6c-1.9-0.5-21.2-4.4-26-6.9c2.2,1.9,6.5,5.5,8.7,5.8c3.3,0.5-4,3.8-4,3.8
	s14.2-2.8,13.1-2.5s-13,7.4-9.8,7c3.2-0.3,14-4.4,14-4.4s-7.2,5.1-3.7,4.5c2.6-0.4,5.2-1,7.7-1.8l-0.7,4.9c0,0-12.6,1-14.2,0.9
	s-12.8-2.1-15.2-4.5c-2.4-2.5,4.4,6.1,11.6,7.5c0,0-4.7,4.2-2.8,3.7s10.7-2.1,10.7-2.1s-6.7,4.7-5.8,4.5s9.5-2.1,9.5-2.1l-2.8,4.5
	c0,0-15.1,2.3-25.9-5.1s8.9,10,12.3,11s-3.5,5.8-3.5,5.8s14.4-4.2,11-2.6s-3.7,3.5-3.7,3.5l11.6-2.3c0,0-2.1,6.8-6,6.8
	s-26.3-0.2-32.6-8.6c0,0,9.8,12.8,14.7,13.3s-4.5,4.4-4.5,4.4s9.6-0.7,11.2-1s-3.7,4-3.7,4s9.6-0.7,11.9-2.3
	c2.3-1.6-5.6,4.9-5.6,4.9s15.1,0,14.5,0.3c-0.5,0.4-5.1,7.4-9.1,7.4s-26.8-2.3-31.5-7s3.7,8.2,10.9,9.6s-3.8,3.1-4.4,3
	c-0.5-0.2,9.8,3.5,12.1,4.4s7.5,9.1,12.3,10.2s-21.5-2.8-27.3-6.6c-5.8-3.9,6.8,6.3,8.6,6.8s-11.2-0.3-14.9-3.5
	c-3.7-3.1,4.2,7.7,8.8,9.3c4.5,1.6-1.6,3.8-2.5,3.5c-0.9-0.4,14.4,8,13,8c-1.1,0-16.6-4.3-23.9-6.3c0-0.7-0.1-0.8-0.4-0.1l-3.3-0.9
	c0,0,1.2,1.1,2.8,2.6v0.1c-2.4,8.8-20,13.7-20,13.7l2.8-3.4l-8,1.5l5.5-4.1l-2.9-0.5c0,0,17.4-14.4,17.8-14.8s-8,3.9-5.3,2.3
	s4.6-8,5-8.5s-7.7,5.8-6.5,4s4.3-8.1,3.4-6.6s-14,9.9-15.8,9.5s3.6-4.5,6.1-5.8s8.8-10.3,9.8-11.7c0.9-1.4-7.8,4.4-6.6,3.2
	c1.2-1.2,5.7-10.2,3-7.1c-2.7,3-17.3,6.9-15.3,6.2s8-4.7,8-4.7s-10.8-0.1-7-1.2s10-8.4,10-8.4s-9-0.1-7-0.4s5.9-5.6,5.9-5.6
	s-6.1,1-3.4,0.1c2.1-0.7,6.6-5.8,8-7.3c-3,1.3-20.8,4.5-18.7,4c2.2-0.5,10.2-12,10.2-12s-5.4,2.6-4.1,1.2s3.3-6.3,3.4-7.1
	c0.1-0.7-10.6,7.2-14.3,10.1c2.1-2.2,6.1-7.4,6.1-7.4l-1.6-1.3l2.5-4.4c0,0-10.8,2.4-9.6,1.7c1.2-0.7,6.3-17.6,6.3-17.6l-11.1,4.8
	c0,0,5.5-7.2,7-9.2c-2.1,2.3-10.9,2.3-13.5,3.1c-2.6,0.8,5.1-6.3,5.1-6.3s0.7-2.2-1.6-1.8c-2.2,0.4,3-6,3-6
	c-1.1,0.9-2.4,1.6-3.7,2.1c-1.6,0.4,4.8-9.8,5.8-11.7c1-1.9-7.2,6-8.3,6.5s0.9-2.9,0.9-2.9c-0.4-0.5-1.1-0.8-1.7-0.7
	c-1.2,0.1,0-1.8,0.8-2.8s3-4.8,4-5.8s-6.3,1.2-6.9,1.4s1.6-2.8,4.9-5.4s-0.9,0-3.7,1.1s5.7-7.1,5.7-7.1s-5.9,3-7.4,3.3
	s2.4-4.5,3.8-5.9c1.5-1.4-2.8,1.1-4.1,1.4s5-7.8,5-7.8l-7.6,4.7c0,0-1.6-12.3-2.4-19.8c0.6,7.8,1.4,21,0,20.1
	c-2.1-1.3-9.7-4.8-9.7-4.8s12.1,8.2,10.2,7.7s-9.8-2.6-9.8-2.6s13,10.6,11.2,10.1s-7-2.5-7-2.5s5.8,4,4,3.7s-16.2-6.4-13.4-4
	s11.6,5.7,9.5,6.2c-2.1,0.6-5.5,3.1-5.5,3.1s4.2-1.5,4.9-1.3s-3,4.4-3,4.4l7.7,5.5c0,0-12.7-3.1-13.4-3.5c3,2.9,6.2,5.7,9.5,8.2
	c0.9,0.4-6.7,0.9-6.7,0.9c1.7,1.2,3.4,2.2,5.3,3.1c1.6,0.5-3.5,3.7-4.6,3.5s9.3,1.6,10.4,1.3s-7.4,4.6-7.4,4.6l7.9,0.2
	c0,0-5.6,10.4-19.9,0.9c0,0,7.8,9.6,10.6,11.3c-2-0.9-7.8-3.2-7.8-3.2s9.8,14.2,18,15.1c0,0-5.9,4.6-25.6-5.3c0,0,3.4,6.6,5.9,8.2
	c2.5,1.7-15.3,2.8-12,3.9s15.6,0.7,15.6,0.7l-6.7,2.2c0,0,19.1,5.8,22.5,4.7s-10.8,10.2-30.1,0.3c0,0,12.5,6.7,13.2,7.8s-9-1-9-1
	s11.1,8.7,14.1,8.9c3,0.3-5,1.5-5,1.5s6.9,4.5,9.5,4.3c2.6-0.3-13.5,6.2-27.4-8.2c0,0,2.6,9.1,5.9,10.9c2.9,1.6-2.9,1.3-5.7-0.1
	c2.8,2.2,9.8,7.7,12.4,8c3.6,0.4,0.4,2.8-0.7,2.8s9.6,0.7,14.5-0.7s1,5.6-3.6,5.6s-21-3.6-26.9-8.8c0,0,3.7,6.2,5.8,7.1
	s-12,4.4-12,4.4s12.8,3.1,16,2.4s-8.1,4.4-8.1,4.4s6.9,0.7,9.1,0.2c2.3-0.5,3.7,2,1.2,3.1s14.2-0.9,14.2-0.9l-6.3,4.9l8.1,0.4
	c0,0-9.7,5.3-12,4.8s3.5,3.7,5.5,3.7s-12,10.1-28.5-5.3c0,0,4.2,10.6,9,13s-2.3,2.4-2.3,2.4l15.5,2.9c0,0-7.2,5.1-8.1,5.1
	s5.6,1.3,5.6,1.3s-19.9-3.5-23.7-7.9c-2.3-2.6-0.7,0.2,2,3.4c-1.3-0.5-2.6-1.2-3.7-2c-4.1-3.3,10.8-6.6,10.8-6.6s-12-2.5-12.4-3.7
	s4.2-29.4,4.2-29.4l-5.8,4.5l-1.7-11.1l-4.7-30.7c0,0-7.5,17.7-12.7,29.8s-9.9,15.5-11.5,12.7s-5.9-9-5.6-6.2s8.7,27,4.7,27
	c-3.2-0.3-6.3-0.7-9.4-1.4c1.1-3.4,1.7-6.4,0.8-5.6c-1.9,1.6-5.4,5.9-4.9,4.3s7.3-19.6,6-18.5s-8.3,12-7.9,8.4s4.6-12.6,3.1-11.3
	c-1.5,1.3-4.9,7.4-5.1,5.4c-0.2-1.6,2.6-10.2,2.3-13.1c1.8,0.2,4.4,0.2,4.4,0.2s-7-6.5-8.8-7.7s7-6.5,4.5-5.9
	c-2.5,0.5-8.4,2-7.7,0.9c0.7-1.1,4.3-13.3,3.1-12.6c-1.2,0.7-2.9,1.1-4.5,2.5s-1.2-12.9-2.3-12c-1.2,0.7-2.5,1.3-3.8,1.6
	c0,0-2.3-16.9-3.4-19c0,0-1,20.9-2.2,19.4c-1.2-1.8-2.2-3.7-3-5.7c0,0,3,16,1.2,16.3s-6.8-1.1-6.8-1.1s5.9,11,4.5,10.2
	s-4.8-2.2-4.8-2.2s5.5,5.7,4,5.7s-6.9,0.4-6.9,0.4s7.8,7.8,5.5,6.9c-3-0.9-6-1.7-9-2.3c0,0,12.5,14.4,9,13.3
	c-2.1-0.7-4.2-1.4-6.2-2.3c0,0,7.4,7.5,5.3,7.1c-2.4-0.3-4.7-0.5-7.1-0.5c0,0,6.1,7.2,6.3,7.9c0,0.1-0.1,0.1-0.3-0.1
	c-2-1.6-15-5.7-12.7-2.7c2.3,3.1,13.3,11.5,10.2,10.6c-3.1-0.9-8-2.2-8-2.2s8,11.1,7.2,11s3.1,4.5,0.8,4s-11.9-5.2-10-3
	s8.7,8.8,7.2,8.8s-7.7,0.2-7.7,0.2s1.7,1.3,3.7,2.9c-6.5,0.7-22.4,3.4-17.6,0.5c5.6-3.4,13.4-29.5,9.9-26.5s-10.1,11.1-9.1,8
	s13.6-36.5,11.1-34.5s-15.4,22.5-14.7,15.8c0.8-6.7,8.6-23.5,5.8-21.1c-2.8,2.3-9.1,13.7-9.6,10c-0.4-2.9,4.8-19.1,4.3-24.5
	c3.3,0.4,8.1,0.4,8.1,0.4s-13.3-12.1-16.5-14.4c-3.2-2.4,13.1-12.1,8.3-11.1s-15.7,3.7-14.4,1.7s8.1-24.8,5.8-23.5
	c-2.3,1.3-5.3,2-8.3,4.7s-2.3-24.1-4.3-22.5c-2,1.7-7.1,3-7.1,3s-4.3-31.5-6.3-35.4c0,0-1.9,39-4.2,36.2s-5.5-10.6-5.5-10.6
	s5.5,29.9,2.3,30.4s-12.7-2-12.7-2s11,20.6,8.3,19.1s-8.9-4-8.9-4s10.2,10.6,7.4,10.6s-12.9,0.8-12.9,0.8s1,1,2.5,2.5
	c-3.5,1.6-8.2,3.8-6.9,2.5c2-2,7.6-9.3,6-7.6c-1.6,1.7-22.3,10-25,9.2s6-5,9.9-6.2s14.6-11.3,16.2-12.9c1.6-1.5-12.3,4.2-10.3,2.9
	s9.9-11.7,5.5-8.3s-26.9,5.8-23.8,5.2c3.1-0.5,12.7-4.5,12.7-4.5s-16.3-1.9-10.4-2.6s16.2-8.8,16.2-8.8s-13.5-1.6-10.5-1.6
	s9.7-6,9.7-6s-9.3,0.2-5.2-0.4c3.3-0.5,10.7-6.2,13-7.7c-4.6,1.2-31.9,2.3-28.7,2c3.5-0.3,16.8-13.2,16.8-13.2s-8.5,2.4-6.3,0.9
	s5.8-7.3,6.1-8.3c0.2-0.8-17,7.3-22.8,10.2c3.5-2.4,10.2-8.1,10.2-8.1l-2.2-2l4.3-5c0,0-16.6,1.3-14.7,0.7
	c1.9-0.7,11.8-20.7,11.8-20.7l-17.3,4.1c0,0,9.2-8,11.7-10.2c-3.5,2.5-16.7,1.2-20.6,1.8s8.6-7,8.6-7s1.3-2.6-2.1-2.5s5.4-7,5.4-7
	c-1.8,0.9-3.8,1.6-5.8,2c-2.4,0.3,8.4-11.3,10.2-13.5s-11.7,6.3-13.3,6.7s1.8-3.4,1.8-3.4c-0.6-0.8-1.5-1.2-2.5-1.1
	c-1.8,0,0.2-2.2,1.5-3.3s5.2-5.5,6.7-6.5s-9.7,0.5-10.5,0.6s2.7-3.1,8-5.9s-1.4-0.1-5.7,0.8s9.5-7.9,9.5-7.9s-9.3,2.8-11.5,2.9
	s4.2-5.2,6.5-6.7s-4.3,0.9-6.3,1s8.5-8.9,8.5-8.9l-12.1,4.6c0,0-0.8-15.5-1.1-24.8c0,9.8-0.6,26.2-2.6,24.9
	c-3-1.9-13.9-7.4-13.9-7.4s17.2,12.1,14.4,11.1s-14.5-4.7-14.5-4.7s18.2,15.2,15.6,14.2s-9.9-4.7-9.9-4.7s8.2,5.9,5.6,5.2
	s-23.5-10.5-19.6-7.1s16.7,8.8,13.5,9.2s-8.6,3-8.6,3s6.5-1.1,7.6-0.8s-5.1,5-5.1,5l10.9,8c0,0-18.6-5.8-19.7-6.4s12,11.1,13.2,11.7
	s-10.2,0.1-10.2,0.1s5.2,3.8,7.5,4.7s-5.8,4-7.3,3.6s13.8,3.5,15.5,3.2s-11.7,4.5-11.7,4.5l11.9,1.5c0,0-9.8,12-30-2
	c0,0,10.6,13,14.4,15.6c-3-1.4-11.2-5.2-11.2-5.2s12.9,19.1,25.2,21.5c0,0-9.5,4.8-37.8-10.5c0,0,4.3,8.7,7.9,11.1s-23.4,1-18.6,2.9
	s23.3,3.3,23.3,3.3l-10.5,1.6c0,0,28,10.1,33.3,9.3s-17.6,10.8-45.3-4.4c0,0,18,10.3,18.8,11.8c0.8,1.5-13.4-2.6-13.4-2.6
	s15.5,12.4,20.1,13.2s-7.7,1.1-7.7,1.1s9.7,6.7,13.7,6.8s-21.2,5.5-40.2-14.5c0,0,2.8,11.6,7.5,14.3c4.2,2.4-4.5,1.2-8.5-1
	c3.9,3.1,13.7,11.1,17.6,11.9c5.3,1.1,0.2,3.5-1.4,3.3c-1.6-0.2,14.4,2.4,21.9,1.4s0.9,7.1-6.1,6.4c-6.9-0.7-31.1-7.7-39.4-15.1
	c0,0,4.7,8.3,7.7,9.7c3,1.5-18.6,3.5-18.6,3.5s18.9,5.9,23.8,5.5c4.9-0.4-12.7,4.2-12.7,4.2s10.2,2,13.7,1.7s5.3,3.1,1.4,4
	s21.6,1.1,21.6,1.1l-10.2,5.1l12.1,1.8c0,0-15.2,5-18.6,4s4.8,5.1,7.7,5.4s-19.3,10.6-42.2-11c0,0,5,13.8,11.8,17.5
	s-3.8,2.6-3.8,2.6l22.9,6.1c0,0-11.5,5.2-12.8,5.1l-13-4c1.1-1.2,1.4-2,0.6-2c-1.5,0.1-3,0.3-4.4,0.5c-4.4-1.8-8-3.7-9.5-5.5
	l-0.3-0.3c4.1-8.6,7.6-22.8,5.1-20.6c-3.3,3-9.4,11.1-8.4,8s12.6-36.5,10.3-34.5S190.2,349.7,191,343c0.7-6.7,7.9-23.5,5.4-21.1
	c-2.6,2.3-8.4,13.7-8.9,10.1c-0.4-2.9,4.5-19.1,3.9-24.5c3,0.4,7.5,0.4,7.5,0.4s-12.1-12.1-15.2-14.4c-3-2.3,12.1-12.1,7.7-11.1
	c-4.4,1-14.5,3.7-13.3,1.7s7.5-24.8,5.4-23.5s-4.9,2-7.7,4.7s-2.1-24.1-4-22.5s-6.5,3-6.5,3s-4-31.5-5.8-35.4c0,0-1.8,39-3.9,36.2
	c-2.1-2.8-5.1-10.6-5.1-10.6s5.1,29.9,2.1,30.4s-11.7-2-11.7-2s10.2,20.6,7.7,19.1s-8.2-4-8.2-4s9.5,10.6,6.8,10.6
	c-2.6,0-11.9,0.8-11.9,0.8s13.5,14.6,9.5,12.8c-4-1.8-15.6-4.3-15.6-4.3s21.6,26.9,15.6,24.9c-3.6-1.2-7.2-2.7-10.7-4.3
	c0,0,12.8,14.1,9.1,13.3c-3.7-0.8-12.3-1-12.3-1s10.6,13.5,10.9,14.8c0,0.2-0.1,0.1-0.6-0.2c-3.5-3-25.9-10.6-22-4.9
	s22.9,21.5,17.5,19.8c-3-0.9-7-2.1-9.9-2.9c0.5-1,0.9-2.1,1.2-3.2c0-0.3-1.6,0.8-3.9,2.5l-1.2-0.3l0.5,0.8
	c-3.8,2.7-8.9,6.6-11.3,8.5c2.4-2.5,6.8-8.3,6.8-8.3l-1.8-1.5l2.8-5c0,0-12,2.8-10.7,2s7-19.9,7-19.9l-12.2,5.4
	c0,0,6.1-8.2,7.7-10.4c-2.3,2.6-12,2.6-14.9,3.5s5.7-7.1,5.7-7.1s0.7-2.5-1.8-2s3.4-6.8,3.4-6.8c-1.2,1-2.7,1.8-4.2,2.3
	c-1.8,0.5,5.3-11,6.4-13.2c1.2-2.2-8,6.8-9.2,7.3s1-3.3,1-3.3c-0.4-0.6-1.2-0.9-1.9-0.8c-1.3,0.2,0-2,0.9-3.1s3.4-5.4,4.4-6.5
	s-7,1.4-7.6,1.5s1.8-3.1,5.4-6.1s-1,0-4.1,1.2s6.3-8.1,6.3-8.1s-6.6,3.4-8.2,3.7s2.6-5.1,4.2-6.7s-3.1,1.2-4.5,1.5s5.6-8.9,5.6-8.9
	l-8.4,5.3c0,0-1.7-13.9-2.7-22.4c0.7,8.8,1.6,23.8,0,22.8c-2.3-1.5-10.7-5.4-10.7-5.4s13.4,9.3,11.3,8.7S77.2,284,77.2,284
	s14.4,12,12.5,11.4s-7.6-3.3-7.6-3.3s6.4,4.6,4.5,4.1s-17.9-7.2-14.8-4.6c3.1,2.7,12.8,6.4,10.5,7s-6,3.5-6,3.5s4.7-1.7,5.4-1.5
	c0.8,0.2-3.3,5-3.3,5l8.6,6.3c0,0-14-3.5-14.8-3.9s9.5,8.9,10.5,9.3s-7.4,1-7.4,1c1.8,1.3,3.8,2.5,5.8,3.5c1.8,0.6-3.9,4.1-5.1,3.9
	s10.3,1.9,11.5,1.5s-8.2,5.2-8.2,5.2l8.8,0.2c0,0-4,7.5-13.6,5.1l0,0c-3-0.8-5.8-2.2-8.4-4c0,0,3,3.8,6.1,7.2
	c-0.8,0.7-1.7,1.4-2.6,2l-0.4-0.2l0.2,0.3c-6,3.8-15.5,6.7-15.2,6.2c0.4-0.6,11.5-12.8,12.1-13.3c0.6-0.4-5.8,2.9-5,1.9
	s4.4-7.2,6.2-9.5c1.8-2.3-15.9,12-16.5,12.3c-0.6,0.2-4-1.2-2-2.5s19.3-16,19.3-16s-8.8,3.5-6.8,1.5c2-2.1,5.8-10.4,2-6.6
	c-3.8,3.7-18.5,10.6-17.7,10.1c0.8-0.4,5.2-3.5,3.2-3c-2,0.4-6.2-6-5.6-6.2c0.6-0.2,5.6-2.5,6.6-2.5s-8.5-2.3-5.6-4.1
	c3-1.9,13.4-16.6,12.6-15.6s-4.3,2.8-4.3,2.8c6.4-4.5,9-26.6,6.3-16.6s-22.6,15.6-22.6,15.6l3.1-3.9l-9.1,1.7l6.3-4.7l-3.3-0.6
	c0,0,19.7-16.3,20.1-16.8c0.4-0.5-9.1,4.4-6,2.6c3.1-1.7,5.2-9,5.7-9.6s-8.7,6.5-7.3,4.5c1.3-2,4.9-9.2,3.9-7.5S34,274.4,31.9,273.9
	s4-5.1,6.9-6.5s10-11.6,11-13.2s-8.8,5-7.5,3.6s6.4-11.5,3.4-8.1s-19.5,7.8-17.3,7c2.2-0.8,9.1-5.3,9.1-5.3s-12.2-0.2-7.9-1.4
	s11.4-9.5,11.4-9.5s-10.1-0.2-7.9-0.5s6.7-6.4,6.7-6.4s-6.9,1.1-3.9,0.2c2.4-0.8,7.5-6.6,9.1-8.2c-3.4,1.5-23.5,5.1-21.2,4.5
	c2.5-0.6,11.5-13.5,11.5-13.5s-6.1,3-4.6,1.4c1.5-1.6,3.7-7.1,3.9-8.1c0.1-0.8-12,8.2-16.2,11.5c2.4-2.5,6.9-8.3,6.9-8.3l-1.8-1.6
	l2.8-5c0,0-12.2,2.8-10.9,2s7.2-19.9,7.2-19.9L10.4,194c0,0,6.2-8.2,7.9-10.4c-2.4,2.6-12.3,2.6-15.2,3.5S9,180,9,180s0.8-2.5-1.8-2
	s3.4-6.8,3.4-6.8c-1.3,1-2.7,1.8-4.2,2.3c-1.8,0.5,5.4-11,6.6-13.2s-8.2,6.8-9.4,7.3s1-3.3,1-3.3c-0.4-0.6-1.2-0.9-1.9-0.8
	c-1.3,0.2,0-2,0.9-3.1S7,155,8,153.9s-7.1,1.5-7.7,1.6s1.8-3.1,5.5-6.1s-1,0-4.2,1.2s6.4-8.1,6.4-8.1c-2.6,1.4-5.3,2.6-8.1,3.6V480
	h971.5V264l-0.1,0.1C969.5,267.2,962.5,271.3,960.4,270.8z M72.8,341.1c1.6,2,3.4,3.7,5.4,5.3c-1.5-0.7-4.8-2.1-6.9-3
	C71.8,342.7,72.3,341.9,72.8,341.1z M59.8,365.8c-3.7,0.6-7,1.2-5.3,1.8c0.5,0.2,1,0.3,1.5,0.4c-0.6,0.3-1.3,0.6-1.9,0.8
	c-4.5,1.5,4.3-6.3,9.5-10.7c0.8,1.3,1.6,2.5,2.6,3.6C64,363.2,61.8,364.7,59.8,365.8L59.8,365.8z M65.8,356.2l1-0.8l5.2-8.5
	c0,0-5.6,3.1-3.6,0.8c0.8-1,1.6-2.1,2.3-3.3c2.3,3.1,4.9,6.1,7.6,8.8c-2,1.4-4.5,3.2-7.2,5.1C69.5,357.8,67.7,357,65.8,356.2
	L65.8,356.2z M75.2,359.7c1.5-1.9,2.9-3.9,4.1-5.5c3.2,2.9,6.8,5.4,10.2,5.7C89.6,359.9,85.9,362.8,75.2,359.7L75.2,359.7z
	 M124.4,363.4c0.5-0.6,1-1.3,1.3-2l1.1,1.6C125.3,363.7,123.6,364.3,124.4,363.4L124.4,363.4z M117.7,375.5
	c1.8-0.5,7.2-7.8,9.8-11.4c1.8,2.8,3.8,5.9,5.3,8.5C126,374.2,116.1,376,117.7,375.5L117.7,375.5z M193.7,379.9
	c1.2-0.8,2.5-2.7,3.7-5.3c1.4,2.1,3,4,4.6,5.9C196.3,381.3,190.8,381.9,193.7,379.9L193.7,379.9z M215.3,452.1
	C215.3,451.9,215.3,451.9,215.3,452.1L215.3,452.1z M354.5,336.4c4,4.2,9.1,9.9,6.3,8.8c-2.6-0.9-5.3-1.7-8-2.3
	c1.9-1,3.1-1.7,3.2-1.8c-1.7,0.3-3.5,0.7-5.1,1.3l-1.2-0.3C351.6,340.5,353.3,338.6,354.5,336.4z M322.7,362l8.9-4.2l-4.3-1.1
	c0,0,12.1-6.5,20.6-11.1c2.7,3.2,6.2,7.6,9.1,11.4c-9.4,6.1-26.6,8.2-26.6,8.2l4.6-3.8L322.7,362z M355,367.7c-1.5,0.5-2.9,1-2.9,1
	c0.9-0.4,1.7-0.9,2.4-1.6L355,367.7z M357,388.4c-2.2-1.8-11.7-5.2-18.1-6.5c0.2-0.2,0.4-0.3,0.7-0.4c1.6-0.6,4.7-3,7.9-5.7
	c3.2,3.8,9.9,11.8,10.1,12.9C357.7,388.9,357.5,388.8,357,388.4L357,388.4z M359.1,374.9c-3.1-0.5-6.3-0.8-9.5-0.9
	c2.3-2,4.5-4,6.1-5.5C358.7,372,361.1,375.2,359.1,374.9L359.1,374.9z M360.8,365.9c-1.4-0.4-2.7-0.9-3.9-1.3c1-1.2,1.8-2.6,2.6-3.9
	C361.9,364.1,362.9,366.5,360.8,365.9L360.8,365.9z M525.6,446.5l-0.1-0.2h0.1C525.9,446.3,525.8,446.3,525.6,446.5L525.6,446.5z
	 M645.4,405c-1,0-18.6,2.8-30.5,3.6l0.1-0.1c2.6-1.7,11.8-14.7,11.2-13.8c-1.2,1-2.5,1.8-3.8,2.5c3.3-2.3,5.5-10,6.2-14.2
	c4,3.7,10.3,9.2,11.9,9.4c2.5,0.3-7.7,3.1-7.7,3.1S646.9,405,645.4,405L645.4,405z"/>
</svg>
