<svg id="Layer_1" data-name="Layer 1" xmlns="http://www.w3.org/2000/svg" viewBox="0 0 342.3 65.4"><title>forestry-logotype-pos</title><path d="M55.89,15.18,30.35.43a3.2,3.2,0,0,0-3.2,0L1.6,15.18A3.2,3.2,0,0,0,0,18v29.5a3.2,3.2,0,0,0,1.6,2.77L27.15,65a3.2,3.2,0,0,0,3.2,0L55.89,50.22a3.2,3.2,0,0,0,1.6-2.77V18A3.2,3.2,0,0,0,55.89,15.18ZM20,38.1a.8.8,0,0,1-.8-.8V35.45H14a1.2,1.2,0,0,1-1.06-1.76L19.3,21.53a1.2,1.2,0,0,1,2.13,0l4.49,8.58-2.79,5.34H21.57V37.3a.8.8,0,0,1-.8.8Zm14.88,7.41h-2a.8.8,0,0,1-.8-.8V41.78H24.06A1.2,1.2,0,0,1,23,40l9.76-18.65a1.2,1.2,0,0,1,2.13,0L44.65,40a1.2,1.2,0,0,1-1.06,1.76H35.64v2.93A.8.8,0,0,1,34.84,45.51Z"/><path d="M93.23,49H86.76V18h17.78v5.39H93.23v8h10.52v5.37H93.23Z"/><path d="M141.36,33.49q0,7.7-3.82,11.84T126.6,49.46q-7.13,0-10.95-4.14t-3.82-11.88q0-7.74,3.83-11.83t11-4.08q7.15,0,10.94,4.12T141.36,33.49Zm-22.63,0q0,5.2,2,7.83a6.9,6.9,0,0,0,5.9,2.63q7.87,0,7.87-10.46T126.64,23a7,7,0,0,0-5.92,2.64Q118.73,28.29,118.73,33.49Z"/><path d="M157,37.14V49H150.4V18h9q6.32,0,9.35,2.3t3,7a8.23,8.23,0,0,1-1.51,4.87,10,10,0,0,1-4.26,3.34q7,10.46,9.12,13.51h-7.3l-7.4-11.9Zm0-5.35h2.12a8.11,8.11,0,0,0,4.6-1,3.71,3.71,0,0,0,1.49-3.27,3.4,3.4,0,0,0-1.52-3.14,9.21,9.21,0,0,0-4.7-.93h-2Z"/><path d="M199.54,49H181.68V18h17.86v5.39H188.26v8h10.5v5.39h-10.5v6.83h11.29Z"/><path d="M226.92,40.43a8,8,0,0,1-3,6.62q-3,2.42-8.41,2.42a19.75,19.75,0,0,1-8.78-1.87V41.49a36.16,36.16,0,0,0,5.31,2,15.72,15.72,0,0,0,4,.57,5.66,5.66,0,0,0,3.32-.83,2.83,2.83,0,0,0,1.16-2.46,2.72,2.72,0,0,0-.51-1.62,5.7,5.7,0,0,0-1.5-1.37,38.65,38.65,0,0,0-4-2.1,19.06,19.06,0,0,1-4.26-2.57,9.62,9.62,0,0,1-2.27-2.86,8.17,8.17,0,0,1-.85-3.82,8,8,0,0,1,2.79-6.47q2.79-2.35,7.71-2.35a18.21,18.21,0,0,1,4.61.57,31.78,31.78,0,0,1,4.59,1.61l-2.12,5.11a31,31,0,0,0-4.1-1.42,13.22,13.22,0,0,0-3.19-.4,4.22,4.22,0,0,0-2.86.87,2.87,2.87,0,0,0-1,2.27,2.81,2.81,0,0,0,.4,1.52A4.42,4.42,0,0,0,215.18,29a39.57,39.57,0,0,0,4.17,2.17q4.35,2.08,6,4.17A8.14,8.14,0,0,1,226.92,40.43Z"/><path d="M247.12,49h-6.58V23.5h-8.42V18h23.42V23.5h-8.42Z"/><path d="M269.49,37.14V49h-6.58V18h9q6.32,0,9.35,2.3t3,7a8.23,8.23,0,0,1-1.51,4.87,10,10,0,0,1-4.26,3.34q7,10.46,9.12,13.51h-7.3L273,37.14Zm0-5.35h2.12a8.11,8.11,0,0,0,4.6-1,3.71,3.71,0,0,0,1.49-3.27,3.4,3.4,0,0,0-1.52-3.14,9.21,9.21,0,0,0-4.7-.93h-2Z"/><path d="M303.85,30.8,310.32,18h7.08L307.12,37V49h-6.53V37.18L290.3,18h7.13Z"/><path d="M325.9,19.2a1.27,1.27,0,0,1,.33-.94,1.31,1.31,0,0,1,1-.33,1.28,1.28,0,0,1,.94.33,1.27,1.27,0,0,1,.34.94,1.24,1.24,0,0,1-.34.92,1.27,1.27,0,0,1-.94.34,1.3,1.3,0,0,1-1-.34A1.24,1.24,0,0,1,325.9,19.2Zm2.42,13.59H326V22h2.28Z"/><path d="M342.3,27.39A5.86,5.86,0,0,1,341,31.5,4.84,4.84,0,0,1,337.2,33a5.15,5.15,0,0,1-2.66-.68,4.49,4.49,0,0,1-1.78-2,6.64,6.64,0,0,1-.62-3,5.82,5.82,0,0,1,1.34-4.08,4.86,4.86,0,0,1,3.78-1.47,4.73,4.73,0,0,1,3.69,1.5A5.79,5.79,0,0,1,342.3,27.39Zm-7.82,0q0,3.72,2.75,3.72T340,27.39q0-3.68-2.74-3.68a2.34,2.34,0,0,0-2.08,1A4.85,4.85,0,0,0,334.49,27.39Z"/></svg>