<?xml version="1.0" encoding="UTF-8" standalone="no"?>
<svg width="86px" height="23px" viewBox="0 0 86 23" version="1.1" xmlns="http://www.w3.org/2000/svg" xmlns:xlink="http://www.w3.org/1999/xlink">
    <!-- Generator: Sketch 39.1 (31720) - http://www.bohemiancoding.com/sketch -->
    <title>Page 1</title>
    <desc>Created with Sketch.</desc>
    <defs>
        <polygon id="path-1" points="0 0.20416 0 11.4300926 9.82847766 11.4300926 9.82847766 0.20416 5.15502459e-21 0.20416"></polygon>
        <polygon id="path-3" points="0 0.204107865 0 22.9393258 85.1309255 22.9393258 85.1309255 0.204107865 20.9352834 0.204107865 4.4066814 0.204081798 4.4066814 18.9663649 20.9352834 18.9663649 20.9352834 0.204107865"></polygon>
    </defs>
    <g id="Page-1" stroke="none" stroke-width="1" fill="none" fill-rule="evenodd">
        <g id="Dashboard---My-sites" transform="translate(-77.000000, -33.000000)">
            <g id="Logo-section">
                <g id="Page-1" transform="translate(77.000000, 33.000000)">
                    <g id="Group-3" transform="translate(0.000000, 0.577941)">
                        <mask id="mask-2" fill="white">
                            <use xlink:href="#path-1"></use>
                        </mask>
                        <g id="Clip-2"></g>
                        <path d="M4.18327363,10.2526274 L4.18327363,11.1694184 C4.18327363,11.3133106 4.29687857,11.4300926 4.43685608,11.4300926 L5.37536473,11.4300926 C5.51559583,11.4300926 5.62894718,11.3133106 5.62894718,11.1694184 L5.62894718,10.2526274 C5.62894718,10.1806813 5.68574965,10.1222903 5.75573841,10.1222903 L9.28154882,10.1222903 C9.68981656,10.1222903 9.95303515,9.67862292 9.76842712,9.3066409 L5.3989479,0.509930787 C5.19684269,0.102236404 4.63008591,0.102236404 4.42823428,0.509930787 L0.0600229663,9.3066409 C-0.124585058,9.67862292 0.138633526,10.1222903 0.545379778,10.1222903 L4.0564824,10.1222903 C4.12647116,10.1222903 4.18327363,10.1806813 4.18327363,10.2526274" id="Fill-1" fill="#FFFFFF" mask="url(#mask-2)"></path>
                    </g>
                    <path d="M11.9175891,18.7624135 C11.5569949,18.7624135 11.2636,18.4608135 11.2636,18.0901348 L11.2636,16.6981348 L5.77506139,16.6981348 C5.38530516,16.6981348 5.03054331,16.4937663 4.82640944,16.1509798 C4.6217684,15.8079326 4.60553913,15.3895506 4.78304684,15.0313843 L11.6779537,1.14631461 C11.8689013,0.760777528 12.2490214,0.521217978 12.6699682,0.521217978 C13.0909151,0.521217978 13.4710352,0.760777528 13.6619828,1.14683596 L20.5589183,15.0313843 C20.736426,15.3892899 20.7201968,15.8074112 20.5158093,16.1504584 C20.3114218,16.4935056 19.9558992,16.6981348 19.5646215,16.6981348 L14.0530069,16.6981348 L14.0530069,18.0901348 C14.0530069,18.4608135 13.759612,18.7624135 13.3990178,18.7624135 L11.9175891,18.7624135 Z" id="Fill-4" fill="#FFFFFF"></path>
                    <g id="Group-8" transform="translate(0.000000, 0.056592)">
                        <mask id="mask-4" fill="white">
                            <use xlink:href="#path-3"></use>
                        </mask>
                        <g id="Clip-7"></g>
                        <path d="M12.6698922,0.204081798 C12.1530911,0.204081798 11.6862458,0.498122247 11.4519357,0.971767191 L4.55728239,14.8563155 C4.33920148,15.2958121 4.35898091,15.8093402 4.61002754,16.2305897 C4.860567,16.6510571 5.29622165,16.9020863 5.77498532,16.9020863 L11.010195,16.9020863 L11.010195,18.0336728 C11.010195,18.5479829 11.4171949,18.9663649 11.917513,18.9663649 L13.3991953,18.9663649 C13.8995135,18.9663649 14.3065133,18.5479829 14.3065133,18.0336728 L14.3065133,16.9020863 L19.564799,16.9020863 C20.0448306,16.9020863 20.481246,16.6507964 20.7320391,16.2298076 C20.9830857,15.8088189 21.0026115,15.2955515 20.7847842,14.8565762 L13.8875951,0.970985169 C13.6535385,0.498122247 13.1866932,0.204081798 12.6698922,0.204081798 M12.6698922,0.725430112 C12.9731768,0.725430112 13.2764614,0.886266067 13.4359648,1.20819865 L20.3331539,15.093529 C20.6242665,15.6805672 20.209152,16.380738 19.564799,16.380738 L13.999425,16.380738 C13.888863,16.380738 13.7993484,16.4730166 13.7993484,16.5864099 L13.7993484,18.0336728 C13.7993484,18.26072 13.6200656,18.4450166 13.3991953,18.4450166 L11.917513,18.4450166 C11.6963891,18.4450166 11.5173599,18.26072 11.5173599,18.0336728 L11.5173599,16.5864099 C11.5173599,16.4730166 11.4275917,16.380738 11.3170298,16.380738 L5.77498532,16.380738 C5.13291455,16.380738 4.71780008,15.6805672 5.00891273,15.093529 L11.9038196,1.20819865 C12.0633229,0.886266067 12.3666076,0.725430112 12.6698922,0.725430112" id="Fill-6" fill="#FFFFFF" mask="url(#mask-4)"></path>
                    </g>
                    <path d="M25.280091,9.9295218 L24.5538309,9.9295218 C24.3185064,9.9295218 24.1478454,9.73167011 24.1478454,9.51218247 L24.1478454,8.04067685 C24.1478454,7.79929258 24.3185064,7.6235982 24.5538309,7.6235982 L25.280091,7.6235982 L25.280091,5.25198472 C25.280091,2.35302742 27.0102841,0.81583191 29.275029,0.81583191 C30.4072746,0.81583191 31.4112076,1.32101843 31.7958921,1.67240719 C31.9239513,1.78215101 31.9665531,2.02353528 31.8813494,2.17733303 L31.1548357,3.58288809 C31.069632,3.75858247 30.8343075,3.8026364 30.6423456,3.69263191 C30.3644192,3.51693753 29.8516755,3.25339596 29.3817872,3.25339596 C28.463058,3.25339596 27.9505678,3.97807011 27.9505678,5.25198472 L27.9505678,7.6235982 L30.0867464,7.6235982 C30.3218173,7.6235982 30.4924783,7.79929258 30.4924783,8.04067685 L30.4924783,9.51218247 C30.4924783,9.73167011 30.3218173,9.9295218 30.0867464,9.9295218 L27.9505678,9.9295218 L27.9505678,15.9907173 C27.9505678,16.2099443 27.7580988,16.407796 27.5445823,16.407796 L25.685823,16.407796 C25.4723065,16.407796 25.280091,16.2099443 25.280091,15.9907173 L25.280091,9.9295218 Z" id="Fill-9" fill="#FFFFFF"></path>
                    <path d="M35.0106837,14.2557744 C36.1429293,14.2557744 37.0616585,13.245662 37.0616585,11.993644 C37.0616585,10.764044 36.1429293,9.77582831 35.0106837,9.77582831 C33.8571371,9.77582831 32.9599624,10.764044 32.9599624,11.993644 C32.9599624,13.245662 33.8571371,14.2557744 35.0106837,14.2557744 M35.0106837,7.40395416 C37.4250422,7.40395416 39.3900526,9.51202607 39.3900526,11.993644 C39.3900526,14.5190553 37.4250422,16.6273879 35.0106837,16.6273879 C32.5965787,16.6273879 30.6313147,14.5190553 30.6313147,11.993644 C30.6313147,9.51202607 32.5965787,7.40395416 35.0106837,7.40395416" id="Fill-11" fill="#FFFFFF"></path>
                    <path d="M40.4668398,8.04078112 C40.4668398,7.79939685 40.6593088,7.62370247 40.8728253,7.62370247 L41.6847963,7.62370247 C41.8767582,7.62370247 42.0053245,7.73344629 42.0692273,7.90914067 L42.368201,8.76545528 C42.6674283,8.32621933 43.4578448,7.40395416 44.7823059,7.40395416 C45.7864924,7.40395416 46.6836671,7.73344629 46.4270417,8.28216539 L45.6368788,9.70987775 C45.5301206,9.90746876 45.3163506,9.99531596 45.145436,9.90746876 C45.0815332,9.88557213 44.761005,9.77582831 44.5261876,9.77582831 C43.6713612,9.77582831 43.1588711,10.368862 43.0092574,10.6761969 L43.0092574,15.9908216 C43.0092574,16.2978957 42.8167883,16.4079002 42.5178146,16.4079002 L40.8728253,16.4079002 C40.6593088,16.4079002 40.4668398,16.2100485 40.4668398,15.9908216 L40.4668398,8.04078112 Z" id="Fill-13" fill="#FFFFFF"></path>
                    <path d="M51.9217423,10.9175551 C51.857586,10.1050337 51.1739277,9.42441348 50.3622103,9.42441348 C49.5076374,9.42441348 48.8026782,10.0833978 48.69592,10.9175551 L51.9217423,10.9175551 Z M50.426113,7.40392809 C52.6267015,7.40392809 54.421051,9.11681798 54.421051,11.4884315 C54.421051,11.6422292 54.39975,11.9276674 54.3784491,12.0814652 C54.3568946,12.3012135 54.1649327,12.4550112 53.9724636,12.4550112 L48.5034509,12.4550112 C48.5676072,13.3553798 49.3154219,14.3654921 50.5544258,14.3654921 C51.2167831,14.3654921 51.8360315,14.1019506 52.220716,13.8165124 C52.4342325,13.6848719 52.6267015,13.640818 52.7760616,13.8165124 L53.6519354,14.8485213 C53.801549,15.0023191 53.8444045,15.2437034 53.6306345,15.4193978 C52.9256753,16.1005393 51.8360315,16.6273618 50.4476675,16.6273618 C47.883949,16.6273618 46.0682986,14.5411865 46.0682986,12.0157753 C46.0682986,9.5341573 47.883949,7.40392809 50.426113,7.40392809 L50.426113,7.40392809 Z" id="Fill-15" fill="#FFFFFF"></path>
                    <path d="M55.0172994,15.3536297 L55.5939459,14.1678229 C55.6794032,13.9480746 55.8931732,13.9042813 56.0853887,14.0140252 C56.0853887,14.0140252 57.0467198,14.5411083 58.0293518,14.5411083 C58.4568918,14.5411083 58.7556119,14.3656746 58.7556119,13.9921285 C58.7556119,13.5969465 58.4568918,13.3553016 57.3243925,12.894169 C55.6794032,12.2354454 54.9105412,11.3350769 54.9105412,9.99547236 C54.9105412,8.65560719 55.8716187,7.40411056 58.0506527,7.40411056 C59.311211,7.40411056 60.2296867,7.77713528 60.678274,8.08473079 C60.8707431,8.21637124 60.9775013,8.45827685 60.8707431,8.67750382 L60.3366985,9.79762067 C60.2296867,9.99547236 59.9948693,10.0171083 59.8239548,9.95141843 C59.8239548,9.95141843 58.8626237,9.49028584 58.0506527,9.49028584 C57.5381625,9.49028584 57.3243925,9.70977348 57.3243925,9.99547236 C57.3243925,10.3906544 57.7090771,10.5222948 58.4994936,10.851787 C60.144483,11.5107712 61.3834868,12.2354454 61.3834868,13.9480746 C61.3834868,15.3976836 60.144483,16.6275443 57.9867499,16.6275443 C56.5765779,16.6275443 55.5939459,16.1664117 55.1453585,15.8147622 C55.0172994,15.7052791 54.9315885,15.529324 55.0172994,15.3536297" id="Fill-17" fill="#FFFFFF"></path>
                    <path d="M63.0792434,9.9295218 L62.3527297,9.9295218 C62.1389597,9.9295218 61.9680451,9.73167011 61.9680451,9.51218247 L61.9680451,8.04067685 C61.9680451,7.79929258 62.1389597,7.6235982 62.3527297,7.6235982 L63.0792434,7.6235982 L63.0792434,5.18577348 C63.0792434,4.96628584 63.2714589,4.76869483 63.4849753,4.76869483 L65.2367229,4.7467982 C65.4504929,4.7467982 65.6214075,4.94438921 65.6214075,5.16387685 L65.6214075,7.6235982 L67.5014678,7.6235982 C67.7362851,7.6235982 67.9071997,7.79929258 67.9071997,8.04067685 L67.9071997,9.51218247 C67.9071997,9.73167011 67.7362851,9.9295218 67.5014678,9.9295218 L65.6214075,9.9295218 L65.6214075,13.4431488 C65.6214075,14.0580791 65.9416821,14.1459263 66.2835113,14.1459263 C66.6468949,14.1459263 67.0954823,13.9921285 67.3302996,13.9042813 C67.5653706,13.8164342 67.7362851,13.9264387 67.8004415,14.1459263 L68.2277279,15.529324 C68.3129316,15.7488117 68.2061734,15.96856 67.9924034,16.0564072 C67.8858988,16.1223578 66.4972813,16.6275443 65.4504929,16.6275443 C63.8055035,16.6275443 63.0792434,15.573378 63.0792434,13.7945375 L63.0792434,9.9295218 Z" id="Fill-19" fill="#FFFFFF"></path>
                    <path d="M69.1588827,8.04078112 C69.1588827,7.79939685 69.3513518,7.62370247 69.5648682,7.62370247 L70.3768392,7.62370247 C70.5688011,7.62370247 70.6973674,7.73344629 70.7612702,7.90914067 L71.0602439,8.76545528 C71.3594712,8.32621933 72.1498877,7.40395416 73.4743488,7.40395416 C74.4785354,7.40395416 75.3757101,7.73344629 75.1190846,8.28216539 L74.3289217,9.70987775 C74.2221635,9.90746876 74.0083935,9.99531596 73.8374789,9.90746876 C73.7735761,9.88557213 73.4530479,9.77582831 73.2182306,9.77582831 C72.3634041,9.77582831 71.850914,10.368862 71.7013003,10.6761969 L71.7013003,15.9908216 C71.7013003,16.2978957 71.5088313,16.4079002 71.2098576,16.4079002 L69.5648682,16.4079002 C69.3513518,16.4079002 69.1588827,16.2100485 69.1588827,15.9908216 L69.1588827,8.04078112 Z" id="Fill-21" fill="#FFFFFF"></path>
                    <g id="Group-25" transform="translate(75.313988, 7.616143)" fill="#FFFFFF">
                        <path d="M0.213161409,0.578462022 C0.0851022707,0.29302382 0.256016843,0.00758561798 0.576545062,0.00758561798 L2.49895363,0.00758561798 C2.69116912,0.00758561798 2.79792734,0.117329438 2.86233728,0.248969888 L5.01981678,5.21194517 L5.0411177,5.21194517 L7.17754986,0.248969888 C7.28430807,0.0294822472 7.43392172,0.00758561798 7.69029357,0.00758561798 L9.39918571,0.00758561798 C9.74101486,0.00758561798 9.91192943,0.29302382 9.76256937,0.578462022 L3.22521377,15.1162598 C3.16131099,15.2481609 3.03325185,15.3798013 2.86233728,15.3798013 L1.02513242,15.3798013 C0.7046042,15.3798013 0.512388701,15.0943631 0.661748765,14.7870283 L3.69535563,8.17685303 L0.213161409,0.578462022 Z" id="Fill-23"></path>
                    </g>
                </g>
            </g>
        </g>
    </g>
</svg>